<svg xmlns="http://www.w3.org/2000/svg" xmlns:xlink="http://www.w3.org/1999/xlink" version="1.1" x="0px" y="0px" viewBox="0 0 95.924 63.644999999999996" style="enable-background:new 0 0 95.924 50.916;" xml:space="preserve"><g><g><g><path d="M95.877,37.49l-1.307-5.565c-0.715-3.047-3.4-5.175-6.53-5.175H77.388l-7.103-2.999L52.511,12.366l-1.277-1.567     l0.958-0.832c0.709-0.616,0.819-1.675,0.252-2.424l-3.051-4.028c-0.573-0.756-1.636-0.932-2.422-0.401l-1.289,0.872l-1.711-2.1     c-0.481-0.589-1.325-0.727-1.969-0.318L39.55,3.129c-0.029-0.021-0.053-0.046-0.084-0.065l-4.5-2.833     c-0.553-0.348-1.269-0.299-1.768,0.125l-6.413,5.429c-1.698,1.438-1.945,3.932-0.562,5.675l4.65,5.86l-1.656,1.303     c-1.24,0.534-2.434,0.553-3.646,0.053c-3.764-1.548-6.749-7.705-7.582-9.946c-0.218-0.588-0.779-0.979-1.406-0.979h-3.667     c-0.397,0-0.779,0.158-1.061,0.439L9.94,10.106C8.93,9.127,5.526,6.229,2.379,8.24c-1.633,1.043-2.334,2.786-1.785,4.439     c0.461,1.393,2,2.899,4.851,3.201L1.717,30.034c-0.053,0.199-0.063,0.408-0.032,0.612l0.539,3.466l-2.187,9.589     c-0.133,0.585,0.096,1.194,0.582,1.547c0.319,0.231,7.967,5.668,21.548,5.668h9.083c0.573,0,1.097-0.326,1.348-0.842l3.046-6.237     l8.453,0.769l5.02,5.793c0.285,0.329,0.699,0.518,1.134,0.518h12c0.19,0,0.38-0.036,0.557-0.107l3.17-1.268l1.927,0.835     c0.26,0.112,0.547,0.147,0.821,0.107c4.64-0.703,27.756-4.619,27.188-12.755C95.908,37.648,95.896,37.568,95.877,37.49z      M92.809,37.547c-0.593,0.161-1.384,0.309-2.142,0.428V35.75c0-0.354-0.188-0.683-0.493-0.862l-4.173-2.452     c-0.12-0.07-0.134-0.176-0.125-0.252c0.01-0.076,0.049-0.175,0.182-0.214l4.408-1.308c0.572,0.497,1,1.164,1.184,1.949     L92.809,37.547z M79.159,30.936l-0.811-1.186h8.158l-1.017,0.302c-0.875,0.26-1.488,0.983-1.599,1.89s0.31,1.756,1.097,2.219     l3.68,2.162v1.908c-0.147,0.013-0.259,0.02-0.324,0.02c-0.088-0.002-0.341-0.022-0.722-0.051     c-7.169-0.539-11.886-0.511-14.549,0.101l5.976-6.1C79.383,31.858,79.429,31.329,79.159,30.936z M28.573,9.594     c-0.371-0.467-0.305-1.135,0.15-1.521l5.574-4.719l2.462,1.55l-2.481,1.58c-0.632,0.402-0.87,1.21-0.558,1.891l1.663,3.628     c0.35,0.765,0.133,1.661-0.528,2.182l-1.625,1.279L28.573,9.594z M13.538,10.75h2.036c1.057,2.456,4.157,8.763,8.851,10.697     c2.049,0.844,4.137,0.788,6.206-0.172c0.105-0.049,0.205-0.109,0.297-0.182l5.783-4.552c1.754-1.379,2.329-3.76,1.399-5.789     l-1.118-2.439l5.495-3.499l7.85,9.633c0.101,0.124,0.22,0.23,0.354,0.315l18.084,11.583c0.071,0.046,0.146,0.086,0.225,0.119     l6.578,2.778l1.467,2.144l-7.425,7.579c-0.157,0.16-0.232,0.361-0.26,0.567c-2.578,0.458-5.975,0.181-7.349-0.017l-10.095-1.82     c-1.492-0.266-3.039,0.19-4.157,1.198l-12.135-1.084c-0.922-2.098-2.789-3.66-5.022-4.185l-7.643-1.799l-2.127-7.192     c-0.066-0.225-0.209-0.418-0.403-0.548L8.49,16.098l0.107-0.408L13.538,10.75z M22.987,35.721     c-0.704-0.295-1.428-0.533-2.167-0.715l-2.957-8.581c-0.067-0.196-0.195-0.367-0.365-0.488l-9.25-6.584     c-0.173-0.123-0.372-0.165-0.57-0.167l0.274-1.042l11.067,7.403l2.189,7.403c0.102,0.345,0.381,0.608,0.729,0.69l8.208,1.932     c1.237,0.29,2.321,1.018,3.063,2.022l-7.643-0.683L22.987,35.721z M2.492,12.051c-0.259-0.78,0.102-1.574,0.963-2.125     c1.893-1.212,4.317,0.871,5.07,1.595L6.19,13.855c-0.024,0.024-0.04,0.056-0.063,0.082C3.901,13.85,2.779,12.916,2.492,12.051z      M7.186,21.051l8.891,6.328l2.498,7.249L5.14,33.342l-0.443-2.847L7.186,21.051z M30.314,47.916h-8.146     c-10.128,0-16.756-3.29-18.969-4.583l1.823-7.994l13.464,1.289c1.285,0.124,2.54,0.438,3.695,0.923l10.768,4.97L30.314,47.916z      M34.886,40.756c-0.25-0.02-0.489,0.035-0.71,0.128l-3.213-1.483l15.104,1.349l-0.874,0.986     c-0.075-0.019-0.144-0.057-0.223-0.065L34.886,40.756z M68.7,47.452l-2.104-0.912c-0.368-0.161-0.784-0.165-1.153-0.017     l-3.482,1.393H50.935l-4.225-4.877l2.169-2.446c0.668-0.751,1.7-1.105,2.685-0.93l10.128,1.825     c0.298,0.044,7.289,1.025,10.71-0.864c1.139-0.629,4.679-1.215,15.07-0.432c0.476,0.036,0.78,0.057,0.863,0.057     c0.411,0,2.109-0.177,3.662-0.473C88.909,42.806,78.592,45.909,68.7,47.452z"/><path d="M39.458,23.793l-2.835,4.608c0,0.001,0,0.001,0,0.001c-0.436,0.708-0.444,1.592-0.022,2.308     c0.422,0.717,1.209,1.153,2.028,1.102l12.494-0.555l7.752,2.365c0.095,0.029,0.193,0.044,0.292,0.044     c0.059,0,0.117-0.005,0.176-0.016l7.833-1.396c0.415-0.074,0.739-0.4,0.811-0.816c0.07-0.416-0.128-0.832-0.495-1.039     l-6.25-3.521c-0.167-0.095-0.355-0.137-0.55-0.127c-2.85,0.167-4.26,0.326-4.996,0.48c-0.54-0.572-1.786-2.079-3.943-4.908     c-0.823-1.079-2.162-1.602-3.508-1.353l-6.367,1.167C40.874,22.322,39.993,22.925,39.458,23.793z M42.237,24.105l6.368-1.167     c0.594-0.105,1.192,0.121,1.557,0.599c4.381,5.744,4.705,5.767,5.243,5.803c0.199,0.01,0.396-0.034,0.57-0.129     c0.5-0.135,2.651-0.328,4.54-0.445l3.566,2.009l-4.854,0.865l-7.687-2.346c-0.095-0.029-0.193-0.044-0.292-0.044     c-0.015,0-0.029,0-0.044,0.001l-12.665,0.562c-0.113,0.003-0.183-0.062-0.217-0.117c-0.033-0.057-0.06-0.146,0.002-0.246     l2.835-4.608C41.399,24.456,41.791,24.188,42.237,24.105z"/><path d="M31.859,27.325c1.377,0,2.498-1.12,2.498-2.497s-1.121-2.498-2.498-2.498c-1.377,0-2.497,1.121-2.497,2.498     S30.482,27.325,31.859,27.325z M31.859,24.33c0.274,0,0.498,0.224,0.498,0.498s-0.224,0.497-0.498,0.497     c-0.274,0-0.497-0.223-0.497-0.497S31.584,24.33,31.859,24.33z"/><path d="M38.667,21.778c1.377,0,2.497-1.121,2.497-2.498s-1.12-2.497-2.497-2.497s-2.497,1.12-2.497,2.497     S37.29,21.778,38.667,21.778z M38.667,18.783c0.274,0,0.497,0.223,0.497,0.497s-0.223,0.498-0.497,0.498     s-0.497-0.224-0.497-0.498S38.393,18.783,38.667,18.783z"/></g></g></g><text x="0" y="65.916" fill="#000000" font-size="5px" font-weight="bold" font-family="'Helvetica Neue', Helvetica, Arial-Unicode, Arial, Sans-serif">Created by Gadeno Team</text><text x="0" y="70.916" fill="#000000" font-size="5px" font-weight="bold" font-family="'Helvetica Neue', Helvetica, Arial-Unicode, Arial, Sans-serif">from the Noun Project</text></svg>