<svg xmlns="http://www.w3.org/2000/svg" xmlns:xlink="http://www.w3.org/1999/xlink" version="1.1" x="0px" y="0px" viewBox="0 0 100 61.875" enable-background="new 0 0 100 49.5" xml:space="preserve"><g><path d="M92.7,13.9c0.1-0.5-1-2.2-1.2-2.7c-0.6-1.1-1.2-2.2-1.9-3.2c-1-1.5-1.6-2.7-3.7-2.5c-1.7,0.2-2.4,1.9-2.9,3.3   c-0.6,1.6-1.2,3-2.7,4c-2.8,1.9-6.7,1.6-9.9,1c-2.3-0.4-4.6-1.1-6.8-1.9c-0.2-0.1-0.9-0.3-1-0.4c0-0.1,0.1-0.2,0.1-0.3   c0-0.1,0.1-0.4,0.1-0.5c0.1-0.5,0.2-0.9,0.3-1.4c0.1-1.2-0.2-2.4-0.8-3.4c-0.8-1.2-2.6-2.7-4.1-2.9c-1.1-0.1-2.8,1.4-3.7,2   c-1.8,1.1-3.5,2.3-5.3,3.4c-3.5,2.2-7.1,4.5-10.9,6.1c-2.1,0.9-4.3,1.7-6.4,2.7c-2,1-3.9,2-6,2.8c-3.8,1.6-7.7,1.8-11.8,2.3   c-2.6,0.3-5.4,0.9-7.5,2.6c-2.5,2-3.3,5.5-3.2,8.6c0.1,3.2,2.9,5.5,5.6,6.8c3.8,1.8,8,2.5,12.2,2.9c4.4,0.4,8.8,0.8,13.2,1   c4.5,0.2,8.9,0,13.4-0.4c2.5-0.2,5-0.5,7.5-0.7c2.5-0.2,5-0.1,7.4-0.1c5.1,0.1,10.2,0.2,15.3,0c3.5-0.1,7.3-0.3,10.6-1.5   c1.6-0.5,3.2-1.3,4.2-2.6c1.1-1.4,1-3.2,1.2-4.9c0.4-4.4,0.8-8.9,0.2-13.3C94,18.3,93.6,16.2,92.7,13.9 M92.1,31.7   c-6.4,2.4-14,1.7-20.7,1.6c-0.6,0-1.1,0-1.7,0c-0.4,0-2.4,0.2-2.6,0c-0.3-0.4-0.2-2.1-0.2-2.7c0-0.1,0-0.9-0.1-0.9   c-0.2-0.2-0.9,0.3-1.1,0.1c-0.2-0.2,0.1-1.1-0.1-1.3c-0.1-0.1-0.7,0-0.9,0c0-0.4-0.1-0.8-0.1-1.2c-0.3,0-1.2,0.2-1.4,0.1   c-0.2-0.2-0.1-1.2-0.1-1.5c-0.4,0-0.9,0.1-1.3,0.1c0-0.3,0.1-1.3-0.1-1.4c-0.2-0.2-0.9,0.2-1.2,0c-0.3-0.2,0.1-1.1-0.1-1.3   c-0.1-0.2-0.9,0-1.1,0c0-0.4,0-1-0.1-1.3c-0.2-0.5,0-0.3-0.6-0.3c-0.7,0-0.4,0.2-0.6-0.3c-0.1-0.3-0.1-0.9-0.1-1.3   c-0.8,0.1-1.5,0.1-2.3,0.2c2.1-1.2,4.3-3.1,5.5-5.3c4.5,3.2,10.1,6.3,15.8,6c1.3,0,2.6-0.1,3.8-0.1c1.3,0,2.5-0.5,3.7-0.8   c2.5-0.5,5.1-1.6,6.8-3.7C92.6,21.5,92.5,26.6,92.1,31.7 M47.4,34.3c0-0.6-0.1-1.2-0.1-1.8c0-0.2,0.1-1.7-0.1-1.8   c-0.2-0.1-0.7,0.2-0.9,0.1c-0.3-0.1-0.1,0-0.3-0.4c-0.3-0.9,0.2-0.9-1-0.8c0-0.4-0.1-0.8-0.1-1.2c-0.3,0-1.2,0.2-1.4,0.1   c-0.2-0.2-0.1-1.2-0.1-1.5c-0.4,0-0.9,0.1-1.3,0.1c0-0.3,0.1-1.3-0.1-1.4c-0.2-0.2-0.9,0.2-1.2,0c-0.3-0.2,0.1-1.1-0.1-1.3   c-0.1-0.2-0.9,0-1.1,0c0-0.2-0.1-0.6-0.1-0.7c0.1-0.2,1.2-0.3,1.5-0.4c1.3-0.2,2.7-0.5,4-0.7c0.1,0.9,0.1,1.8,0.2,2.7   c0.1,1.1,0.1,0.9,1.2,0.8c0,0.4,0,1.5,0.2,1.6c0.2,0.2,0.8-0.2,1.1-0.1c0.2,0.1,0.1,0.6,0.1,0.8c0.1,0.5-0.1,0.4,0.3,0.6   c0.2,0.1,0.9-0.2,1.1-0.1c0.3,0.2-0.1,1.2,0.2,1.5c0.2,0.2,0.9-0.2,1.1-0.1c0.3,0.2,0.1,0,0.3,0.5c0,0.2-0.1,0.9,0.1,1   c0.1,0.1,0.7-0.2,0.9-0.1c0.2,0.1,0,0.6,0.1,0.8c0.2,0.5-0.1,0.2,0.5,0.3c0.2,0,0.6-0.1,0.7,0c0.1,0.1,0.1,0.9,0.1,1.2   C51.1,34.1,49.3,34.2,47.4,34.3z M57,33.7c0-0.6-0.1-1.2-0.1-1.9c0-0.4,0.1-1.9-0.2-2.1c-0.1-0.1-0.5,0.1-0.7,0   c-0.6-0.1-0.3,0.2-0.5-0.4c-0.3-0.9,0.2-0.9-1-0.8c0-0.4-0.1-0.8-0.1-1.2c-0.3,0-1.2,0.2-1.4,0.1c-0.2-0.2-0.1-1.2-0.1-1.5   c-0.4,0-0.9,0.1-1.3,0.1c0-0.3,0.1-1.3-0.1-1.4c-0.2-0.2-0.9,0.2-1.2,0c-0.3-0.2,0.1-1.1-0.1-1.3c-0.1-0.2-0.9,0-1.1,0   c0-0.3-0.2-0.8-0.1-1.1c0-0.1-0.1-0.3,0-0.4c0.1-0.1,1-0.2,1.2-0.2c1.2-0.2,2.4-0.4,3.6-0.7c0.1,0.8-0.1,3.3,0.5,3.5   c0.2,0.1,0.8-0.2,1-0.1c0.1,0.1,0.1,0.9,0.1,1.1c0.2,0.8,0.3,0.6,1.2,0.5c0,0.3,0,1.5,0.2,1.6c0.2,0.2,0.9-0.2,1.1-0.1   c0.1,0.1,0.1,0.5,0.1,0.7c0,0.2,0,0.6,0.1,0.7c0.2,0.2,0.9-0.2,1.1-0.1c0.4,0.2-0.1,1.2,0.2,1.5c0.4,0.3,1.1-0.4,1.4,0.1   c0.2,0.3-0.1,1,0.1,1.2c0.2,0.2,0.3,0,0.6,0.1c0.5,0.2,0.2-0.2,0.4,0.4c0.1,0.2,0,0.6,0.1,0.7c0.2,0.2,0.8-0.2,1-0.1   c0.1,0.1,0.1,0.5,0.1,0.7C61,33.5,59,33.6,57,33.7z M84.6,17.8c2-1.9,3.2-4.4,4.1-7c0.4,0.7,1.2,1.8,1.3,2.7   c0.1,0.7-0.6,1.6-1.1,2.1C87.7,16.7,86.1,17.4,84.6,17.8 M74.6,16.5c2.9,0,5.9-0.7,8-2.7c1.2-1.2,1.9-2.6,2.4-4.1   c0.4-1,0.9-2.9,2-1.3c-0.3,0.3-0.4,1.2-0.6,1.7c-0.2,0.6-0.5,1.3-0.7,1.9c-0.5,1-1,2.1-1.7,3c-1.2,1.6-2.8,2.9-4.8,3.5   c-5.1,1.6-10.8-1.2-15-3.8C67.6,15.6,71.1,16.5,74.6,16.5z M54.8,7.6c0.9-0.6,2-1.5,3-1.9c0.6-0.3,1,0,1.6,0.4   c0.4,0.3,0.8,0.6,1.1,1c1,1.4,0.3,2.8,0,4.3c-1.1-0.8-2-1.9-3.3-2.3c-1.7-0.6-3.6,0-5.3,0.4C52.8,8.9,53.8,8.2,54.8,7.6   C56.2,6.7,53.9,8.2,54.8,7.6z M44.1,14.3c0.3-0.2,0.7-0.4,1.1-0.5c0,0.7-0.3,1.9-0.7,2.4c-0.5-0.2-1.1-1.1-1.3-1.5   C43.5,14.5,43.8,14.4,44.1,14.3C44.5,14.1,43.9,14.4,44.1,14.3z M39.1,17.1c-0.1,0.3-0.2,0.7-0.4,1c-0.2-0.1-0.5-0.5-0.6-0.7   C38.4,17.3,38.7,17.2,39.1,17.1C39,17.2,38.8,17.1,39.1,17.1z M33.2,19.3c-0.1,0.3-0.2,0.7-0.4,1c-0.2-0.2-0.4-0.3-0.5-0.6   C32.5,19.6,32.8,19.4,33.2,19.3C33.1,19.4,33.1,19.3,33.2,19.3z M31.2,20.2c0.5,0.7,1.3,1.6,2.2,1c0.5-0.3,0.8-1.1,0.9-1.7   c0.2-0.8,0.1-0.9,0.9-1.2c0.6-0.3,1.4-0.8,1.8-0.5c0.4,0.3,0.6,0.9,1.1,1.2c1.1,0.6,1.8-0.6,2-1.5c0.1-0.5,0-1.1,0.2-1.4   c0.2-0.2,0.8-0.4,1-0.5c0.4-0.2,0.6-0.4,1-0.2c0.8,0.5,1,1.7,2,1.9c1.6,0.3,2.5-3,1.9-4.2c1.6-0.4,3.2-0.7,4.8-1.1   c1.5-0.3,3.6-1.3,5.2-0.8c0.7,0.2,1.2,0.7,1.7,1.1c0.5,0.5,1.3,0.7,1.2,1.4c-0.1,0.5-0.8,1.2-1.1,1.5c-0.8,0.9-1.7,1.6-2.6,2.3   c-1.2,0.9-2.2,1.1-3.7,1.4c-2,0.4-4,0.7-6.1,1c-4,0.7-8,1.4-12,2.3c-1.8,0.4-3.6,1-5.4,1.4c-1.3,0.3-4.3,1.1-5.2-0.3   c0.6-0.1,1.1-0.3,1.6-0.5c0.7-0.2,0.5-0.1,1,0.2c0.5,0.3,0.8,0.7,1.5,0.5c0.7-0.3,0.7-1.2,1.1-1.8C28.8,21.1,30.3,20.7,31.2,20.2    M27,22.2c-0.1,0.3-0.1,0.5-0.4,0.2C26.7,22.3,26.8,22.2,27,22.2C27,22.2,26.8,22.2,27,22.2z M20.7,24c0.1,0,0.6,0.9,0.7,1.1   c0.4,0.5,0.9,0.8,1.5,1c1.2,0.5,2.5,0.4,3.7,0.3c3-0.4,5.9-1.5,8.8-2.2c0.1,0.7,0,1.5,0.2,2.2c0.2,0.8,0.3,0.5,1.2,0.4   c0,0.3-0.1,1.4,0.1,1.6c0.3,0.3,0.9-0.3,1.2,0.1c0.5,0.8-0.5,1.1,0.6,1.1c1.1,0.1,0.6-0.2,0.9,0.9c0.3,0.9,0.2,0.2,1.1,0.4   c0.4,0.1,0.2-0.1,0.3,0.2c0.2,0.3-0.1,0.9,0.1,1.2c0.2,0.3,0.7-0.1,0.9,0.2c0.2,0.2-0.1,0.8,0.1,1c0.1,0.2,0.6-0.1,0.8,0   c0.5,0.1,0.2-0.1,0.4,0.2c0.3,0.6-0.1,0.7-0.4,0.8c-0.3,0.1-1.1,0.2-1.4,0.1c-0.4-0.2-1-1.3-1.4-1.6c-1.7-1.6-3.8-2.5-6.1-2.9   c-5.4-1-10.9-0.6-16.3-1.8c-0.6-0.1-4.6-0.9-4.2-1.9c0.4-0.8,2.4-1.4,3.2-1.7C18.2,24.4,19.2,24.3,20.7,24C20.7,24,20,24.1,20.7,24   z M12,25.1c-4.8,4.9,9.9,6.5,12,6.7c4.7,0.4,11.3-0.5,14.9,3.3c-5,0.4-10.1,0.3-15.1,0c-5.4-0.4-11.7-0.9-16.4-3.9   c-0.3-0.2-0.6-0.3-0.8-0.5c-0.4-0.4-0.3-0.3-0.2-0.9C6.5,29,7,28.1,7.5,27.5C8.6,26.1,10.3,25.5,12,25.1 M91.6,36.3   c-0.1,2.4-3.3,3.2-5.2,3.6c-3.6,0.8-7.4,0.9-11.1,1c-8,0.1-15.9-0.4-23.9,0.4c-7.3,0.7-14.6,0.9-21.9,0.4c-4-0.3-8-0.5-12-1.2   C14.8,40,12,39.3,9.6,38c-1.9-1-3.8-2.7-3.7-5c5.1,3.3,11.9,4,17.8,4.4c5.9,0.4,12,0.5,17.8-0.3c3.5-0.5,7.2-0.6,10.7-0.8   c6.1-0.4,12.1-0.7,18.2-0.6c7,0.1,14.7,0.7,21.5-1.4C91.8,34.9,91.7,35.6,91.6,36.3z"/></g><text x="0" y="64.5" fill="#000000" font-size="5px" font-weight="bold" font-family="'Helvetica Neue', Helvetica, Arial-Unicode, Arial, Sans-serif">Created by Leonardo Schneider</text><text x="0" y="69.5" fill="#000000" font-size="5px" font-weight="bold" font-family="'Helvetica Neue', Helvetica, Arial-Unicode, Arial, Sans-serif">from the Noun Project</text></svg>