<svg xmlns="http://www.w3.org/2000/svg" xmlns:xlink="http://www.w3.org/1999/xlink" version="1.1" x="0px" y="0px" viewBox="0 0 100 125" enable-background="new 0 0 100 100" xml:space="preserve"><path d="M85.214,60.893c-0.001-2.629-0.021-9.709-0.021-9.709c-0.004-0.711-0.475-1.336-1.159-1.533l-8.065-2.315l-36.966-9.977  c-0.667-0.181-1.377,0.091-1.756,0.669c-0.04,0.061-4.045,6.055-9.94,6.055c-3.942,0-9.334-2.722-9.388-2.749  c-0.226-0.114-0.475-0.174-0.727-0.174h-0.819c-0.883,0-1.6,0.716-1.6,1.6v18.338c0,0.883,0.717,1.6,1.6,1.6h67.243  c0.004,0,0.009,0,0.013,0c0.885,0,1.6-0.716,1.6-1.6C85.226,61.027,85.224,60.96,85.214,60.893z M27.305,47.282  c6.06,0,10.314-4.52,11.92-6.549l4.059,1.096l-0.917,2.844c-0.271,0.841,0.191,1.744,1.032,2.014  c0.162,0.052,0.328,0.077,0.49,0.077c0.676,0,1.305-0.432,1.522-1.109l0.964-2.991l3.078,0.831l-0.943,3.093  c-0.26,0.845,0.217,1.738,1.062,1.998c0.155,0.047,0.313,0.069,0.468,0.069c0.686,0,1.318-0.442,1.53-1.133l0.976-3.193l3.357,0.906  l-0.855,3.129c-0.232,0.853,0.27,1.732,1.122,1.966c0.142,0.039,0.283,0.058,0.423,0.058c0.703,0,1.348-0.468,1.543-1.179  l0.857-3.14l16.115,4.351l6.887,1.977c0,0.207,0.001,0.436,0.001,0.68H17.972v-8.187C20.07,45.802,23.976,47.282,27.305,47.282z   M17.972,59.497v-3.224h64.034c0.003,1.126,0.005,2.267,0.007,3.224H17.972z"/><text x="0" y="115" fill="#000000" font-size="5px" font-weight="bold" font-family="'Helvetica Neue', Helvetica, Arial-Unicode, Arial, Sans-serif">Created by Ben Biondo</text><text x="0" y="120" fill="#000000" font-size="5px" font-weight="bold" font-family="'Helvetica Neue', Helvetica, Arial-Unicode, Arial, Sans-serif">from the Noun Project</text></svg>