<svg xmlns:x="http://ns.adobe.com/Extensibility/1.0/" xmlns:i="http://ns.adobe.com/AdobeIllustrator/10.0/" xmlns:graph="http://ns.adobe.com/Graphs/1.0/" xmlns="http://www.w3.org/2000/svg" xmlns:xlink="http://www.w3.org/1999/xlink" version="1.1" x="0px" y="0px" viewBox="0 0 100 125" enable-background="new 0 0 100 100" xml:space="preserve"><metadata><sfw xmlns="http://ns.adobe.com/SaveForWeb/1.0/"><slices/><sliceSourceBounds width="99.271" height="16383" x="0.364" y="-8242" bottomLeftOrigin="true"/></sfw></metadata><g><g><path fill="#000000" d="M99.469,69.486c-0.812,4.739-17.791,5.552-17.791,5.552l-0.608-0.413c0,0-37.816,0.474-47.827,0.405    c-10.012-0.067-19.908-0.477-26.689-3.432c-1.845-0.804-3.597-2.359-4.582-3.734c-1.234-1.723-1.606-3.927-1.606-3.927    c0.131,3.308,1.042,4.543,1.042,4.543l-0.06,0.902l1.143,1.053l0.962,0.158l-0.09,0.985c1.926,1.805,5.536,1.955,5.536,1.955    s-0.241,1.114,0.481,1.534c0.722,0.422,3.309,0.633,3.309,0.633c1.354,0.03,2.663-0.166,2.663-0.166    c1.038-0.045,1.67-0.045,1.67-0.045c0.09,0.586,0.722,1.083,0.722,1.083c1.76,0.361,4.152,0.091,4.152,0.091l0.676-0.091    c1.354-0.09,1.76-0.857,1.76-0.857l1.5-0.088c0.012,0,0.023,0.001,0.036,0.001c0.222,0.793,0.946,1.621,0.946,1.621h2.933    c0.42-0.038,1.367-1.159,1.65-1.508c0.854,0.015,1.736,0.029,2.646,0.042l1.163,1.466h2.619l0.743-1.415    c1.496,0.014,3.049,0.021,4.654,0.027l0.785,1.388h2.752l0.918-1.387c1.347-0.004,2.724-0.01,4.13-0.02l0.908,1.406h2.482    l0.915-1.447c1.484-0.019,2.995-0.041,4.528-0.068l0.83,1.248h2.076l0.82-1.323c1.833-0.041,3.694-0.089,5.582-0.146l0.863,1.24    h2.075l0.697-1.357c2.155-0.074,4.339-0.159,6.545-0.256l2.37,1.838c2.12,0.046,7.401-0.64,8.576-0.827    c1.177-0.189,1.363-0.88,1.363-0.88l0.304,0.49c4.845-1.385,6.499-3.311,6.499-3.311C99.966,71.519,99.469,69.486,99.469,69.486z"/></g><g><g><path fill="#000000" d="M96.995,56.789c-0.245-0.775-0.682-0.639-0.682-0.639l-0.213,0.213c-2.342,0.724-6.6,0.853-11.541,1.575     c-4.437,0.65-5.368,5.798-5.513,6.841c0.008-0.001,0.015-0.001,0.021-0.001c0.071-0.001,0.143-0.004,0.217-0.006     c0.006,0,0.014,0,0.021-0.001c0.074-0.002,0.149-0.004,0.227-0.007c0.008,0,0.017-0.001,0.024-0.001     c0.077-0.002,0.155-0.004,0.234-0.009c0.006,0,0.011,0,0.017,0c0.081-0.003,0.165-0.006,0.249-0.01     c0.006,0,0.013-0.001,0.019-0.001c0.084-0.003,0.169-0.006,0.255-0.011c0.004,0,0.01-0.001,0.014-0.001     c0.088-0.003,0.176-0.008,0.265-0.012c0,0,0,0,0.001,0c0.187-0.009,0.375-0.018,0.565-0.027c0.006-0.001,0.013-0.001,0.019-0.001     c0.09-0.005,0.179-0.01,0.268-0.016c0.01,0,0.019-0.001,0.028-0.001c0.086-0.004,0.173-0.01,0.259-0.014     c0.013-0.001,0.026-0.001,0.04-0.003c0.181-0.01,0.358-0.021,0.535-0.031c0.01,0,0.021-0.001,0.03-0.001     c0.084-0.005,0.169-0.01,0.251-0.015c0.018-0.002,0.036-0.004,0.054-0.005c0.078-0.003,0.155-0.008,0.231-0.013     c0.002,0,0.003,0,0.005-0.001c0.183-0.01,0.363-0.022,0.536-0.034c0.013,0,0.022-0.001,0.033-0.002     c0.077-0.004,0.153-0.01,0.228-0.016c0.029-0.001,0.058-0.003,0.087-0.004c0.054-0.005,0.107-0.008,0.16-0.011     c0.039-0.004,0.076-0.006,0.114-0.009c0.045-0.002,0.092-0.006,0.137-0.009c0.02-0.001,0.036-0.002,0.055-0.003     c0.061-0.005,0.119-0.009,0.175-0.013c0.037-0.003,0.074-0.005,0.11-0.007c0.037-0.004,0.073-0.006,0.109-0.008     c0.065-0.005,0.127-0.009,0.188-0.013c0.006,0,0.013-0.002,0.018-0.002c0.113-0.008,0.218-0.015,0.316-0.022     c0.079-0.005,0.154-0.011,0.223-0.015c0.142-0.012,0.26-0.02,0.352-0.026c0.008-0.001,0.017-0.001,0.024-0.002     c0.003,0,0.005,0,0.008,0c0.12-0.009,0.187-0.015,0.187-0.015c6.262-0.451,10.677-1.346,10.677-1.346     c0.096-0.096,0.2-0.11,0.307-0.068l0.11-0.331C97.397,61.23,97.465,58.28,96.995,56.789z M82.415,60.332c0,0,0.002,0,0.003,0     c4.537,0.093,14.208-1.882,14.304-1.901c0.094-0.019,0.182,0.04,0.2,0.132c0.02,0.091-0.039,0.18-0.131,0.2     c-0.096,0.019-9.38,1.911-14.068,1.911c-0.106,0-0.209-0.001-0.312-0.003c-0.094-0.001-0.168-0.079-0.166-0.173     C82.246,60.406,82.322,60.332,82.415,60.332z M81.852,61.389c0.001,0,0.002,0,0.003,0c0.096,0.002,0.195,0.003,0.296,0.003     c4.67,0,14.472-1.973,14.573-1.993c0.091-0.019,0.181,0.041,0.198,0.132c0.02,0.093-0.04,0.182-0.133,0.2     c-0.1,0.021-9.935,1.999-14.642,1.999c-0.102,0-0.203-0.001-0.3-0.002c-0.093-0.002-0.168-0.08-0.166-0.173     C81.684,61.463,81.759,61.389,81.852,61.389z M81.287,62.445c0.001,0,0.003,0,0.004,0c0.092,0.001,0.188,0.002,0.284,0.002     c4.686,0,15.042-2.059,15.148-2.079c0.092-0.021,0.181,0.04,0.198,0.132c0.02,0.092-0.04,0.181-0.133,0.199     c-0.106,0.021-10.493,2.087-15.217,2.087c-0.099,0-0.193-0.001-0.288-0.003c-0.094-0.002-0.167-0.079-0.166-0.173     C81.12,62.519,81.195,62.445,81.287,62.445z M96.789,61.668c-0.111,0.021-11.053,2.173-15.79,2.173c-0.096,0-0.188,0-0.278-0.002     c-0.094-0.001-0.168-0.078-0.165-0.173c0.001-0.091,0.077-0.166,0.168-0.166c0.001,0,0.002,0,0.004,0     c4.534,0.091,15.883-2.143,15.996-2.166c0.092-0.017,0.181,0.043,0.198,0.134C96.94,61.561,96.882,61.649,96.789,61.668z      M96.792,57.793c-0.091,0.02-8.825,1.826-13.492,1.826c-0.112,0-0.22-0.002-0.326-0.003c-0.092-0.003-0.167-0.08-0.165-0.174     c0.003-0.091,0.077-0.165,0.17-0.165c0,0,0.001,0,0.002,0c4.54,0.093,13.65-1.796,13.741-1.815c0.093-0.019,0.182,0.04,0.2,0.132     C96.941,57.685,96.883,57.774,96.792,57.793z"/></g></g><g><g><g><path fill="#000000" d="M78.373,64.763c-0.01,0-0.019,0.001-0.027,0.001c-0.083,0.004-0.162,0.006-0.242,0.008      c-0.008,0-0.016,0-0.022,0c-0.067,0.002-0.132,0.004-0.197,0.006c0.183-0.004,0.374-0.01,0.571-0.017V64.76      C78.428,64.761,78.398,64.762,78.373,64.763z"/></g></g><g><g><path fill="#000000" d="M77.794,64.779c0.011,0,0.022,0,0.035,0c0.152-1.111,1.146-6.603,5.88-7.297      c5.27-0.771,9.812-0.907,12.31-1.681l0.228-0.228c0,0,0.005-0.001,0.013-0.003c-0.009-0.87-0.083-1.919-0.038-4.388      c0.049-2.68-0.593-4.3-0.969-5.013c-0.97,0.334-2.879-0.613-3.719-1.286c-0.816-0.652-2.163-0.402-2.302-0.375      c-3.725,1.143-11.65,5.641-12.573,6.443c-0.326,0.283-1.149,1.231-3.012,4.395l-0.014,0.025      c-0.044,0.072-0.074,0.143-0.107,0.217c-0.307,0.686-0.688,1.155-4.98,2.867c-4.051,1.615-5.943,6.337-6.447,7.813      C67.788,65.263,75.3,64.837,77.794,64.779z"/></g></g></g><g><path fill="#000000" d="M84.894,42.953c-4.829,0.181-6.062-0.812-6.438-1.173c0,0-1.697,1.774-7.488,2.478    c-6.693,0.814-13.104-5.05-13.104-5.05s-0.379-0.105-0.699,0.028c0,0-1.603,0.784-0.834,2.047c0.767,1.264,6.091,3.25,8.618,4.604    c2.526,1.354,9.855,4.311,10.051,5.246c0.495-0.195,0.786-0.312,0.786-0.312h-0.001c-0.029,0.035-0.061,0.072-0.091,0.108    c0.185-0.222,0.349-0.396,0.492-0.521c0.973-0.845,8.961-5.406,12.852-6.594l0.025-0.007c0.018-0.004,0.127-0.027,0.297-0.049    c-0.029,0.004-0.059,0.008-0.085,0.011C89.01,43.383,88.08,42.834,84.894,42.953z"/></g><path fill="#000000" d="M52.556,28.626c1.324,0.74,2.922,3.201,2.915,3.864c-0.013,0.231-0.47,0.927-1.31,1.741   c-0.59-0.228-1.226-0.342-1.901-0.342c-1.991,0-3.961,1.007-5.266,1.673c-0.287,0.148-0.56,0.286-0.795,0.397   c-0.672,0.314-2.132,0.898-4.242,1.696c-0.096-0.072-0.194-0.139-0.292-0.2l0.546-0.437h0.001c0.933,0,1.701-0.88,2.766-2.098   c0.355-0.406,0.722-0.827,1.097-1.21c0.749-0.767,1.996-1.636,3.097-2.403c1.12-0.78,2.088-1.454,2.645-2.06   C52.183,28.849,52.431,28.689,52.556,28.626"/><path fill="#000000" d="M52.616,27.688L52.616,27.688c-0.2,0-0.689,0.107-1.464,0.948c-1.039,1.128-4.19,2.871-5.724,4.444   c-1.307,1.338-2.471,3.036-3.217,3.036c-0.083,0-0.162-0.021-0.234-0.066l-2.03,1.625c0,0,1.147,0.298,1.823,1.016   c1.943-0.73,3.937-1.504,4.812-1.913c0.245-0.115,0.526-0.259,0.824-0.411c1.282-0.655,3.082-1.574,4.854-1.574   c0.706,0,1.407,0.146,2.07,0.512c0.375-0.33,2.003-1.817,2.043-2.775c0.046-1.083-1.985-4.106-3.656-4.829   C52.717,27.7,52.684,27.688,52.616,27.688"/><g><path fill="#000000" d="M17.309,54.332c0.009,0.068,0.024,0.14,0.045,0.211c0.167,0.572,0.696,1.049,1.573,1.42    c0.289,0.777,1.211,2.213,4.157,3.361c0.958,0.374,1.055,0.69,1.062,0.778c0.018,0.221-0.275,0.658-1.128,1.209    c-0.481-0.372-0.872-0.742-1.146-1.002c-0.147-0.141-0.263-0.25-0.346-0.317c-0.712-0.583-1.474-1.008-6.043-1.991    c-0.883-0.189-1.696-0.4-2.483-0.604c-1.062-0.273-2.036-0.525-2.998-0.682C12.76,55.808,15.654,54.867,17.309,54.332     M18.071,53.518c-1.56,0.503-7.167,2.316-11.135,3.645c0.385-0.05,0.764-0.072,1.14-0.072c2.268,0,4.444,0.827,7.293,1.44    c4.503,0.969,5.187,1.367,5.814,1.881c0.262,0.215,0.903,0.907,1.806,1.555c1.314-0.771,2.911-2.125,0.292-3.146    c-3.152-1.23-3.787-2.739-3.915-3.266C17.341,54.799,17.829,53.838,18.071,53.518L18.071,53.518z"/></g><g><path fill="#000000" d="M78.455,41.78c0,0,3.896-3.385,5.46-6.724c1.165-2.484,2.788-2.471,3.663-2.116    c-0.001-0.001-1.153-2.334-4.12,0.765c-2.965,3.096-6.783,9.471-10.704,10.281C77.113,43.18,78.455,41.78,78.455,41.78z"/></g><g><g><path fill="#000000" d="M56.352,37.233c0.017,0.019,0.03,0.035,0.046,0.053c1.144-1.955-0.022-3.16-0.022-3.16     c0.278-0.442,0-1.284,0-1.284c-0.023,0-0.045,0.002-0.066,0.004c-0.307,0.94-1.643,2.162-1.979,2.458l0,0     c-2.326-1.287-5.132,0.146-6.925,1.062c-0.298,0.152-0.579,0.296-0.824,0.411c-1.417,0.663-5.776,2.285-8.095,3.127     c0.299,0.176,0.546,0.417,0.741,0.656c1.995-0.726,6.077-2.227,7.583-2.932c2.026-0.948,5.862-3.52,8.389-0.542     c0,0,2.077,1.714,2.663,2.121c0,0,0.311,0.284,0.864,0.716C58.36,39.62,57.276,38.319,56.352,37.233z M54.549,35.436     c-0.03-0.02-0.062-0.04-0.093-0.058C54.487,35.396,54.519,35.416,54.549,35.436z M54.847,35.643     c-0.056-0.043-0.112-0.083-0.167-0.122C54.734,35.561,54.791,35.601,54.847,35.643z M54.937,35.713     c0.053,0.042,0.104,0.085,0.154,0.129C55.04,35.798,54.987,35.755,54.937,35.713z M55.146,35.891     c0.068,0.062,0.136,0.128,0.203,0.196C55.281,36.019,55.214,35.954,55.146,35.891z M55.405,36.145     c0.07,0.073,0.139,0.149,0.207,0.23c0.061,0.068,0.123,0.14,0.188,0.215c-0.065-0.075-0.128-0.146-0.188-0.215     C55.544,36.294,55.476,36.219,55.405,36.145z M56.202,37.058c-0.035-0.042-0.069-0.082-0.104-0.123     C56.133,36.976,56.167,37.016,56.202,37.058z M55.999,36.819c-0.053-0.06-0.103-0.118-0.151-0.175     C55.896,36.701,55.946,36.759,55.999,36.819z"/></g></g><g><g><path fill="#000000" d="M24.147,49.898c-0.056-0.083-0.103-0.167-0.147-0.247l-0.02-0.035c-0.048-0.087-0.093-0.173-0.135-0.259     c-0.212,0.194-0.417,0.382-0.615,0.563l1.016,0.108C24.212,49.986,24.18,49.945,24.147,49.898z"/></g><g><g><path fill="#000000" d="M39.766,41.435c0,0-1.023-2.468-3.068-1.625c0,0-0.383,0.199-1.001,0.542      c0.051,0.022,0.103,0.043,0.153,0.065c0.171,0.074,0.344,0.146,0.514,0.211c0.118,0.045,0.237,0.087,0.351,0.126      c0.272,0.095,0.507,0.178,0.663,0.282l0.044,0.037c0.025,0.026,0.051,0.052,0.076,0.077c0.158,0.156,0.334,0.332,0.435,0.656      c0.233,0.281,0.36,0.636,0.36,1.008c0,0.226-0.048,0.454-0.137,0.658c-0.116,0.264-0.384,0.458-0.736,0.536      c-0.363,0.08-0.719,0.012-0.932-0.178c-0.017-0.013-0.111-0.069-0.318-0.146c-0.482-0.181-1.111-0.517-1.683-0.897      c-0.063-0.042-0.125-0.085-0.186-0.129l-0.118-0.081c-0.426-0.292-0.81-0.561-1.048-0.728c-0.734,0.451-1.517,0.954-2.287,1.485      c0.138,0.043,0.275,0.086,0.408,0.116c0.186,0.042,0.372,0.075,0.537,0.104c0.347,0.061,0.518,0.093,0.636,0.171l0.101,0.068      l0.017,0.122c0.001,0.013,0.012,0.041,0.024,0.071c0.046,0.124,0.116,0.307,0.142,0.715c0.129,0.269,0.198,0.561,0.198,0.849      v0.001c0,0.249-0.052,0.492-0.149,0.706c-0.23,0.508-0.961,0.654-1.377,0.561c-0.033-0.007-0.156-0.033-0.38-0.059      c-0.515-0.059-1.073-0.352-1.574-0.826c-0.059-0.056-0.115-0.115-0.17-0.173l-0.066-0.07c-0.231-0.24-0.437-0.472-0.595-0.655      c-0.195,0.164-0.383,0.328-0.562,0.492c-0.564,0.516-1.161,1.062-1.759,1.608c0.095,0.006,0.186,0.011,0.269,0.015      c0.506,0.027,0.617,0.035,0.713,0.1l0.324,0.217l-0.316,0.228c-0.011,0.008-0.022,0.015-0.031,0.024      c0.002-0.003-0.01,0.039-0.01,0.19c0,0.118,0.008,0.282,0.025,0.513l0.012,0.139c0.015,0.193,0.03,0.374,0.03,0.555      c0,0.309-0.046,0.55-0.147,0.761c-0.211,0.446-0.773,0.631-1.089,0.702c-0.109,0.024-0.245,0.045-0.417,0.071      c-0.488,0.075-0.921-0.096-1.279-0.486l-1.349,0.27c-0.03,0.006-0.066,0.013-0.087,0.019c-0.048,0.112-0.088,0.572-0.112,0.85      l-0.014,0.169c-0.039,0.473-0.069,0.846-0.244,1.193c-0.211,0.424-0.597,0.731-1.289,1.03c-0.31,0.134-0.59,0.14-0.833,0.016      c-0.299-0.153-0.508-0.494-0.622-1.015c-0.022-0.102-0.039-0.204-0.053-0.306c-0.681,0.249-1.434,0.61-1.591,1.021      c0,0-1.746,1.685,2.828,2.587c4.573,0.903,12.449,2.196,23.704,13.644c7.806-1.444,16.371-3.174,16.371-3.174      c0.072-0.016,0.148-0.029,0.223-0.044c0.117-0.394,0.579-1.832,1.519-3.475c1.443-2.524,3.334-4.309,5.468-5.159      c4.229-1.687,4.403-2.078,4.59-2.49c0.038-0.085,0.08-0.182,0.145-0.29l0.014-0.024c1.187-2.018,2.112-3.412,2.759-4.161h0.001      c0,0-11.529,4.614-13.635,4.743c-2.105,0.13-2.467-1.374-2.588-2.037c-0.119-0.661-1.443-3.249-4.571-5.595      c-3.13-2.347-6.921-6.078-10.832-4.693C44.159,43.239,40.969,43.42,39.766,41.435z"/></g></g><g><path fill="#000000" d="M37.401,37.961l-0.058,0.053c-0.103,0.098-0.257,0.303-0.257,0.432c0,0.022,0,0.083,0.153,0.153     c0.008,0.004,1.035,0.462,2.076,0.973c2.181,1.069,2.297,1.312,2.36,1.444c0.042,0.089,0.189,0.144,0.372,0.141     c0.246-0.005,0.485-0.115,0.542-0.251c0.058-0.133,0.087-0.279,0.087-0.422c0-0.172-0.046-0.497-0.366-0.731     c-0.207-0.152-0.836-0.614-1.565-1.041c-0.867-0.508-1.584-0.802-2.132-0.876c-0.9-0.12-1.155,0.047-1.201,0.085L37.401,37.961z"/></g><g><path fill="#000000" d="M34.407,40.51c-0.594-0.061-0.887,0.022-0.956,0.113c-0.014,0.018-0.039,0.051-0.083,0.079     c-0.069,0.054-0.26,0.274-0.26,0.415c0,0.02,0,0.057,0.08,0.11c0.004,0.002,0.179,0.126,0.448,0.314     c0.531-0.318,1.025-0.605,1.454-0.85C34.849,40.6,34.62,40.531,34.407,40.51z"/></g><g><path fill="#000000" d="M34.608,42.214c0.058,0.041,0.116,0.082,0.175,0.121c0.531,0.354,1.134,0.676,1.573,0.841     c0.165,0.062,0.382,0.155,0.488,0.249c0.067,0.059,0.25,0.099,0.457,0.053c0.174-0.038,0.311-0.125,0.355-0.225     c0.06-0.136,0.091-0.288,0.091-0.439c0-0.184-0.046-0.453-0.263-0.694L37.44,42.07l-0.016-0.065     c-0.058-0.221-0.169-0.332-0.309-0.471c-0.021-0.02-0.041-0.041-0.062-0.062c-0.105-0.062-0.307-0.133-0.52-0.208     c-0.117-0.041-0.241-0.084-0.364-0.132c-0.177-0.067-0.354-0.143-0.532-0.219c-0.188-0.08-0.37-0.157-0.546-0.224     c-0.429,0.245-0.923,0.531-1.454,0.85c0.23,0.161,0.528,0.368,0.85,0.589L34.608,42.214z"/></g><g><path fill="#000000" d="M29.748,43.613c-0.542-0.028-0.667,0.086-0.708,0.123c-0.027,0.024-0.049,0.042-0.067,0.053     c-0.091,0.057-0.309,0.29-0.309,0.443c0,0.021,0.004,0.046,0.033,0.078c0.006,0.007,0.127,0.16,0.317,0.379     c0.407-0.326,0.835-0.648,1.276-0.964C30.097,43.667,29.914,43.622,29.748,43.613z"/></g><g><path fill="#000000" d="M29.651,45.388c0.048,0.052,0.096,0.103,0.147,0.151c0.41,0.388,0.871,0.637,1.265,0.681     c0.171,0.02,0.331,0.044,0.437,0.069c0.232,0.052,0.668-0.042,0.766-0.257c0.066-0.145,0.101-0.31,0.101-0.481v-0.001     c0-0.221-0.057-0.447-0.164-0.653l-0.026-0.052l-0.004-0.059c-0.018-0.364-0.071-0.505-0.111-0.609     c-0.002-0.008-0.005-0.016-0.008-0.023c-0.088-0.02-0.232-0.045-0.354-0.066c-0.171-0.03-0.366-0.064-0.565-0.11     c-0.2-0.045-0.396-0.108-0.585-0.17c-0.088-0.028-0.174-0.056-0.258-0.081c-0.44,0.315-0.869,0.638-1.276,0.964     c0.153,0.177,0.349,0.398,0.567,0.624L29.651,45.388z"/></g><g><path fill="#000000" d="M24.883,47.55c-0.31,0.014-0.407,0.081-0.479,0.131c-0.017,0.011-0.032,0.021-0.046,0.03     c-0.176,0.11-0.424,0.389-0.373,0.576c0,0,0.102,0.312,0.277,0.689c0.47-0.431,0.964-0.883,1.465-1.34     c-0.091-0.01-0.18-0.022-0.268-0.035C25.253,47.571,25.059,47.542,24.883,47.55z"/></g><g><path fill="#000000" d="M24.454,49.353l0.021,0.036c0.039,0.07,0.077,0.14,0.122,0.206c0.275,0.405,0.584,0.576,0.945,0.521     c0.177-0.026,0.305-0.046,0.396-0.067c0.369-0.083,0.637-0.234,0.718-0.405c0.065-0.136,0.095-0.304,0.095-0.529     c0-0.158-0.014-0.329-0.029-0.51l-0.011-0.141c-0.03-0.39-0.037-0.599-0.019-0.762c-0.058-0.003-0.118-0.006-0.175-0.01     c-0.19-0.01-0.41-0.021-0.637-0.039c-0.051-0.004-0.102-0.01-0.151-0.016c-0.5,0.458-0.995,0.909-1.465,1.34     C24.319,49.097,24.382,49.226,24.454,49.353z"/></g><g><path fill="#000000" d="M22.318,50.756c0.015-0.131,0.031-0.243,0.052-0.337c-0.204,0.005-0.446,0.022-0.693,0.066     c-0.368,0.064-0.673,0.17-0.907,0.316c-0.266,0.166-0.436,0.376-0.517,0.642c-0.002,0.036-0.004,0.102-0.004,0.188     c0,0.133,0.005,0.348,0.031,0.579c0.378-0.118,0.653-0.186,0.653-0.186S21.478,51.525,22.318,50.756z"/></g><g><path fill="#000000" d="M20.679,53.226c0.034,0.018,0.137,0.07,0.372-0.03c0.564-0.243,0.87-0.476,1.019-0.775     c0.127-0.254,0.152-0.565,0.188-0.996l0.014-0.169c0.016-0.192,0.031-0.357,0.046-0.499c-0.84,0.77-1.385,1.268-1.385,1.268     s-0.275,0.067-0.653,0.186c0.013,0.122,0.032,0.247,0.059,0.368C20.414,52.922,20.535,53.151,20.679,53.226z"/></g></g><g><g><path fill="#000000" d="M3.883,58.132c-4.161,2.081-3.477,6.385-3.477,6.385c0.044,0.428,0.239,0.888,0.515,1.345     c-0.052-0.136-0.102-0.269-0.146-0.396c0.977,1.626,3.568,2.495,8.056,3.783c5.333,1.531,26.722,1.97,26.722,1.97     c2.29-0.342,5.499-0.907,8.869-1.529c-3.098-3.093-6.857-6.003-11.182-8.657c-1.275,0.505-3.262,1.275-5.274,1.974     c-3.363,1.168-6.156-2.081-6.783-2.594c-0.627-0.514-1.311-0.912-5.814-1.881C10.867,57.561,8.045,56.052,3.883,58.132z"/></g><g><path fill="#000000" d="M35.209,61.636c-0.454-0.303-0.901-0.588-1.338-0.857c-0.002,0.002-0.004,0.002-0.006,0.003     C34.319,61.062,34.768,61.348,35.209,61.636z"/></g></g></g><text x="0" y="115" fill="#000000" font-size="5px" font-weight="bold" font-family="'Helvetica Neue', Helvetica, Arial-Unicode, Arial, Sans-serif">Created by Steffen Frys</text><text x="0" y="120" fill="#000000" font-size="5px" font-weight="bold" font-family="'Helvetica Neue', Helvetica, Arial-Unicode, Arial, Sans-serif">from the Noun Project</text></svg>