<svg xmlns="http://www.w3.org/2000/svg" data-name="Layer 1" viewBox="0 0 100 125" x="0px" y="0px"><title>Chris_Kerr_Sneaker2</title><path d="M16.53,66.41h0a0.78,0.78,0,0,0,.78-0.74l0.22-4.73a0.78,0.78,0,0,0-.74-0.81,0.77,0.77,0,0,0-.81.74L15.79,65.6A0.78,0.78,0,0,0,16.53,66.41Z"/><path d="M19,66.86h0a0.78,0.78,0,0,0,.78-0.74l0.22-4.93a0.78,0.78,0,0,0-.74-0.81,0.78,0.78,0,0,0-.81.74L18.3,66.05A0.78,0.78,0,0,0,19,66.86Z"/><path d="M21.56,67.27h0a0.78,0.78,0,0,0,.78-0.74l0.22-4.93a0.78,0.78,0,0,0-.74-0.81,0.79,0.79,0,0,0-.81.74l-0.22,4.93A0.78,0.78,0,0,0,21.56,67.27Z"/><path d="M24.07,67.66h0a0.78,0.78,0,0,0,.78-0.74L25.1,62a0.78,0.78,0,1,0-1.55-.07l-0.22,4.93A0.78,0.78,0,0,0,24.07,67.66Z"/><path d="M26.54,67.85h0a0.78,0.78,0,0,0,.78-0.74l0.22-4.73a0.78,0.78,0,0,0-.74-0.81,0.76,0.76,0,0,0-.81.74L25.8,67A0.78,0.78,0,0,0,26.54,67.85Z"/><path d="M29.18,68.11h0A0.78,0.78,0,0,0,30,67.37l0.22-4.73a0.78,0.78,0,0,0-.74-0.81,0.76,0.76,0,0,0-.81.74l-0.22,4.73A0.78,0.78,0,0,0,29.18,68.11Z"/><path d="M31.69,68.24h0a0.78,0.78,0,0,0,.78-0.74L32.72,63a0.78,0.78,0,1,0-1.55-.07l-0.22,4.54A0.78,0.78,0,0,0,31.69,68.24Z"/><path d="M34.26,68.36h0a0.78,0.78,0,0,0,.78-0.74l0.22-4.15a0.78,0.78,0,0,0-.74-0.82,0.76,0.76,0,0,0-.82.74l-0.22,4.15A0.78,0.78,0,0,0,34.26,68.36Z"/><path d="M95.63,60.37A0.77,0.77,0,0,0,95,59.74a0.75,0.75,0,0,0-.31,0H94.58A48.51,48.51,0,0,1,84,59.24,25,25,0,0,1,74.52,56a1.17,1.17,0,0,0-.83-0.2,1,1,0,0,0-.45.22,0.73,0.73,0,0,0-.1-0.07,61,61,0,0,1-15.27-9.13h0a1.78,1.78,0,0,0,.07-0.25,0.78,0.78,0,0,0-.35-0.79c-4.59-2.91-8.37-7-12-10.94A0.77,0.77,0,0,0,45,34.6a0.77,0.77,0,0,0-.17-0.18,17.74,17.74,0,0,1-3-2.93c-0.46-.52-0.92-1-1.41-1.55a0.76,0.76,0,0,0-.58-0.23,0.78,0.78,0,0,0-.57.27,44.75,44.75,0,0,1-4.4,4.51,13.4,13.4,0,0,1-2.22,1.68,9.47,9.47,0,0,1-7.17.65c-0.85-.24-2.76-0.78-3.46-1.6,0.6-4.17-.56-10-2.95-12.91a2.18,2.18,0,0,0-2.22-1c-0.91.24-1.42,1.18-1.37,2.5a22.54,22.54,0,0,0,1.3,6.1,34,34,0,0,1,1,3.82,21.07,21.07,0,0,1,.3,5.87,19,19,0,0,0-1.7,3.4c-0.46,1.1-.94,2.25-1.37,3.4-0.34.91-.65,1.84-1,2.78C13,52.34,11.89,55.58,9.81,58a0.72,0.72,0,0,0,0,.07A0.75,0.75,0,0,0,9.6,58a0.76,0.76,0,0,0-.77.33s-2.67,4-4.3,6.68a2.08,2.08,0,0,0,.83,2.93C16,73.42,28.28,73.94,41,74h2.12c6.89,0,14-.18,22.15-0.55,10.09-.46,20.47-1.53,28-6.22C96.25,65.39,95.83,61.51,95.63,60.37Zm-21.7-2.87a26.89,26.89,0,0,0,9.79,3.29,46.31,46.31,0,0,0,9.37.57c-1.8,1.5-6.28,3.88-16.57,3.64a1.47,1.47,0,0,0-.25-0.46A1.87,1.87,0,0,0,74.82,64c-1.67-.07-3.37-0.11-5.06-0.14l-3.52-.09A54.31,54.31,0,0,0,73.93,57.49ZM58.14,66.34a2,2,0,0,1,.62-0.92h0A2,2,0,0,1,60.22,65c3.11,0.28,6.36.35,9.5,0.42,1.69,0,3.37.07,5,.14a0.56,0.56,0,0,0,.3,0,1.67,1.67,0,0,1,0,.19l0.39,2.21a1.15,1.15,0,0,0,.06.27,1.11,1.11,0,0,1-.45.12,99.74,99.74,0,0,1-17.6,1.11H57.38A17,17,0,0,1,58.14,66.34ZM72,57.17a38.54,38.54,0,0,1-8.61,6.39l-0.07.05c-1-.05-2-0.11-3-0.2a3.55,3.55,0,0,0-3,1.18h0l-0.79-.05q-8.31-.57-13.2-1c4.93-3.25,11.53-11.44,13.78-15.26A62.53,62.53,0,0,0,72,57.17ZM44.49,36c3.55,3.84,7.23,7.8,11.71,10.76C54.85,49.53,46.32,60.64,41.13,63a0.76,0.76,0,0,0-.31.27c-1.41-.14-2.47-0.28-3.19-0.39a2.9,2.9,0,0,0-1.17-2,3.86,3.86,0,0,0-1.65-.53L20.24,58.22l-0.72-.12a15,15,0,0,0-2.36-.26l2-4.6c0.4-.92.81-1.88,1.15-2.87,0.23-.67.42-1.35,0.62-2a14,14,0,0,1,2-4.76A0.74,0.74,0,0,0,23,43.47l0.29,0.08a20.21,20.21,0,0,0,2.7.38c1,0.08,2,.15,3.07.15A16.4,16.4,0,0,0,35.38,43a21.77,21.77,0,0,0,5.79-4C42.46,37.86,43.37,37.06,44.49,36ZM15.2,60.27c0.6-1.12,2.07-1,4.07-.63L20,59.76l14.56,2.13a2.62,2.62,0,0,1,1,.28c0.55,0.37.6,1.33,0.57,2.23l-0.1,3.76a1.52,1.52,0,0,1-.09.62,1.3,1.3,0,0,1-1.09.38c-5.44-.31-18.18-1-20.29-2.67C14,66,14.2,62.12,15.2,60.27ZM25,38.33a11,11,0,0,0,8.36-.8,14.77,14.77,0,0,0,2.49-1.87,46.21,46.21,0,0,0,4-4l0.77,0.87a23.84,23.84,0,0,0,2.54,2.6c-1,.93-1.84,1.67-3,2.7a20.49,20.49,0,0,1-5.37,3.7c-2.81,1.17-6,1.09-8.69.85A18.76,18.76,0,0,1,23.6,42a11,11,0,0,1-4-1.82l0,0c0.15-.2.31-0.39,0.47-0.58A9.26,9.26,0,0,0,21,38.33a6.84,6.84,0,0,0,.59-1.39A12.25,12.25,0,0,0,25,38.33ZM17,23.78a1.2,1.2,0,0,1,.22-0.94h0a1.11,1.11,0,0,1,.6.46c2.63,3.25,3.65,11,1.89,14.17a22.65,22.65,0,0,0-.41-4,35.09,35.09,0,0,0-1.09-4A21,21,0,0,1,17,23.78ZM15.51,49.71c0.31-.92.62-1.84,1-2.73,0.42-1.12.89-2.25,1.35-3.34,0.3-.71.6-1.42,1-2.1A12.59,12.59,0,0,0,21.44,43a16.42,16.42,0,0,0-2,4.94c-0.19.66-.37,1.32-0.59,2-0.32.93-.72,1.86-1.11,2.75L15.5,57.75a0.76,0.76,0,0,0-.05.36,3,3,0,0,0-1.62,1.42l-0.12.24a11.52,11.52,0,0,1-2.62-.94C13.3,56.24,14.43,52.93,15.51,49.71ZM92.46,65.92c-7.23,4.5-17.37,5.53-27.26,6-9,.41-16.65.59-24.19,0.54-12.53-.07-24.63-0.57-34.95-5.92a0.54,0.54,0,0,1-.27-0.33,0.52,0.52,0,0,1,.06-0.41c1.21-2,3-4.7,3.81-5.94a14.65,14.65,0,0,0,3.54,1.41c-0.61,2.3-.78,5.52.43,6.45,2.29,1.78,12.12,2.48,21.15,3H35a2.77,2.77,0,0,0,2.3-1.07,2.63,2.63,0,0,0,.35-1.44l0.1-3.73c2.7,0.4,9,.94,18.74,1.6h0.14a17.16,17.16,0,0,0-.77,3.27A1.4,1.4,0,0,0,57.45,71q1.29,0,2.58,0a101.86,101.86,0,0,0,15.29-1.16,2,2,0,0,0,1.58-.92A2,2,0,0,0,77,67.64l-0.19-1.09c10.59,0.18,15.37-2.35,17.39-4.11A4.15,4.15,0,0,1,92.46,65.92Z"/><text x="0" y="115" fill="#000000" font-size="5px" font-weight="bold" font-family="'Helvetica Neue', Helvetica, Arial-Unicode, Arial, Sans-serif">Created by Chris Kerr</text><text x="0" y="120" fill="#000000" font-size="5px" font-weight="bold" font-family="'Helvetica Neue', Helvetica, Arial-Unicode, Arial, Sans-serif">from the Noun Project</text></svg>