<svg xmlns="http://www.w3.org/2000/svg" data-name="Layer 1" viewBox="0 0 100 125" x="0px" y="0px"><title>Chris_Kerr_Sneaker3-01</title><path d="M16.53,66.28h0a0.78,0.78,0,0,0,.78-0.74l0.22-4.73A0.78,0.78,0,0,0,16,60.74l-0.22,4.73A0.78,0.78,0,0,0,16.53,66.28Z"/><path d="M19,66.73h0A0.78,0.78,0,0,0,19.85,66l0.22-4.93A0.78,0.78,0,1,0,18.52,61L18.3,65.92A0.78,0.78,0,0,0,19,66.73Z"/><path d="M21.56,67.14h0a0.78,0.78,0,0,0,.78-0.74l0.22-4.93A0.78,0.78,0,0,0,21,61.4l-0.22,4.93A0.78,0.78,0,0,0,21.56,67.14Z"/><path d="M24.07,67.52h0a0.78,0.78,0,0,0,.78-0.74l0.22-4.93a0.78,0.78,0,1,0-1.55-.07l-0.22,4.93A0.78,0.78,0,0,0,24.07,67.52Z"/><path d="M26.54,67.72h0A0.78,0.78,0,0,0,27.35,67l0.22-4.73a0.78,0.78,0,0,0-.74-0.81,0.77,0.77,0,0,0-.81.74L25.79,66.9A0.78,0.78,0,0,0,26.54,67.72Z"/><path d="M29.18,68h0A0.78,0.78,0,0,0,30,67.23l0.22-4.73a0.78,0.78,0,1,0-1.55-.07l-0.22,4.73A0.78,0.78,0,0,0,29.18,68Z"/><path d="M31.69,68.1h0a0.78,0.78,0,0,0,.78-0.74l0.22-4.54A0.78,0.78,0,0,0,32,62a0.77,0.77,0,0,0-.81.74l-0.22,4.54A0.78,0.78,0,0,0,31.69,68.1Z"/><path d="M34.26,68.23h0a0.78,0.78,0,0,0,.78-0.74l0.22-4.15a0.78,0.78,0,0,0-.74-0.82,0.8,0.8,0,0,0-.82.74l-0.22,4.15A0.78,0.78,0,0,0,34.26,68.23Z"/><path d="M95.63,60.23a0.76,0.76,0,0,0-.38-0.53C94,58.07,91.11,58,88,58a30.88,30.88,0,0,1-4.4-.24,32,32,0,0,1-9.15-2.49c-6.73-3.21-8-4.19-10.43-6l-1-.76a0.77,0.77,0,0,0-.24-0.91l-4-3a0.78,0.78,0,0,0-1.06.13,7.23,7.23,0,0,1-.62-0.4l-0.08-.06a0.77,0.77,0,0,0-.2-1l-4-3a0.78,0.78,0,0,0-1.08.15l0,0A5.87,5.87,0,0,1,50.89,40l-0.34-.24a0.77,0.77,0,0,0-.28-0.84l-4-3a0.77,0.77,0,0,0-1,.09h0a39,39,0,0,1-5.9-4.83,0.78,0.78,0,0,0-1.07,0c-2.63,2.36-2.49,5.23-2.4,7.12a3.7,3.7,0,0,1-.16,1.93c-3.21,3.34-9,4.75-12.06,3-1.55-.89-2.48-3.22-3.31-5.28s-1.58-3.94-3-4.16a0.76,0.76,0,0,0-.29,0,14.08,14.08,0,0,0,.44-2.59,4.56,4.56,0,0,0-2.08-4.5,3,3,0,0,0-3-.27c-2.08,1.36-.48,5.47.81,8.77,0.33,0.85.63,1.63,0.75,2.08C12.2,38.32,10,41.92,9.2,44.52c-0.76,2.42-1.4,5.62-.34,7.5a17.75,17.75,0,0,0-.41,6.51,0.74,0.74,0,0,0,0,.13c-0.76,1.14-2.68,4-4,6.18a2.09,2.09,0,0,0,.83,2.93c10.62,5.52,22.93,6,35.66,6.1h2.09c6.91,0,14-.18,22.18-0.55,10.09-.46,20.47-1.53,28-6.22C96.25,65.26,95.83,61.38,95.63,60.23Zm-12.29-.94a31.94,31.94,0,0,0,4.64.26c2.34,0,5,0,5.88.91-1,1.23-5,4.69-17.34,4.4a1.47,1.47,0,0,0-.25-0.46,1.88,1.88,0,0,0-1.45-.57c-1.67-.07-3.36-0.11-5.05-0.14-3.12-.07-6.34-0.14-9.41-0.41a3.54,3.54,0,0,0-3,1.18h0l-0.78-.05-2.8-.19c0.56-.88,1.08-1.76,1.56-2.6,1.32-2.3,2.46-4.29,4.31-5.59a8.26,8.26,0,0,1,3.42-1.25,7.07,7.07,0,0,0,3.8-1.62c1.51,0.88,3.56,2,6.9,3.55A33.8,33.8,0,0,0,83.34,59.29Zm-25.2,6.91a2,2,0,0,1,.62-0.92h0a2,2,0,0,1,1.46-.46c3.12,0.28,6.37.35,9.51,0.42,1.68,0,3.37.07,5,.14a0.36,0.36,0,0,0,.29,0,1.32,1.32,0,0,1,0,.21l0.39,2.21a1.13,1.13,0,0,0,.06.27,1.08,1.08,0,0,1-.45.12,99.59,99.59,0,0,1-17.6,1.11H57.38A17,17,0,0,1,58.14,66.21ZM56.07,45.59l0,0c0.18,0.13.37,0.26,0.57,0.39l-0.33.44L55.76,46Zm-6.4-4.53L50,41.28c0.21,0.15.43,0.31,0.68,0.45l-0.5.67-1-.69Zm-3.72-3.41,2.78,2.07-1.27,1.7a0.78,0.78,0,0,0,.17,1.1l2.24,1.58a0.78,0.78,0,0,0,1.07-.17L52.41,42l2.81,2.09L54,45.79a0.78,0.78,0,0,0,.2,1.08l1.84,1.28A0.78,0.78,0,0,0,57.14,48l1.26-1.65,2.79,2.08-2.33,3.17L43.46,41Zm-9.1,3.65c0.71-.73.65-1.82,0.59-3.09-0.08-1.72-.18-3.64,1.37-5.38a40,40,0,0,0,5.49,4.42l-2.56,3.43a0.78,0.78,0,0,0,.18,1.1L58.6,53.3a0.78,0.78,0,0,0,1.07-.18l2.42-3.3,1,0.73c0.83,0.62,1.54,1.15,2.41,1.72a6.38,6.38,0,0,1-2.71,1,9.65,9.65,0,0,0-4,1.51c-2.13,1.5-3.41,3.73-4.76,6.09-0.61,1.06-1.24,2.15-2,3.25-7.51-.54-12.34-1-14.39-1.32a2.9,2.9,0,0,0-1.17-2,3.85,3.85,0,0,0-1.66-.53l-9.08-1.33a22.53,22.53,0,0,1,4.13-5.19c2.77-2.85,5.64-5.8,4.76-10.46a0.72,0.72,0,0,0,0-.09A13.18,13.18,0,0,0,36.84,41.3ZM15.2,60.14c0.6-1.12,2.06-1,4.07-.63L20,59.63l14.56,2.13a2.58,2.58,0,0,1,1,.28c0.55,0.37.6,1.33,0.57,2.23L36.05,68a1.52,1.52,0,0,1-.09.62,1.32,1.32,0,0,1-1.09.38c-5.44-.31-18.19-1-20.29-2.67C14,65.85,14.2,62,15.2,60.14Zm2.28-24.58a13.43,13.43,0,0,1,1.43,2.93c0.92,2.29,2,4.88,4,6a8.25,8.25,0,0,0,4.15,1A13.76,13.76,0,0,0,33.13,44c0.47,3.61-1.8,5.95-4.41,8.64a22.48,22.48,0,0,0-4.58,5.92,0.73,0.73,0,0,0,0,.11l-3.87-.57L19.52,58c-1.91-.32-4.52-0.75-5.69,1.43l-0.12.24a12.49,12.49,0,0,1-3.6-1.48A0.77,0.77,0,0,0,10,58a14.36,14.36,0,0,1,.78-6.74c0.8-.36,3,0.71,4.14,1.3a7.64,7.64,0,0,0,1.91.79,4.16,4.16,0,0,0,.61,0c2.32,0,5.09-1.79,5.77-3.85a2.38,2.38,0,0,0,.06-2.15,1.76,1.76,0,0,0-1.58-.55,7.46,7.46,0,0,1-.87,0,7.29,7.29,0,0,1-3.84-1.36c-1.79-1.74-1.51-4.18-1.07-6.54v0A13.56,13.56,0,0,1,17.48,35.55Zm-4.25-7.84a0.62,0.62,0,0,1,.26,0,2.33,2.33,0,0,1,1.23.41,3,3,0,0,1,1.22,3,15,15,0,0,1-.92,4l-0.09.27-0.28-.71C13.92,32.75,12.21,28.38,13.23,27.71ZM10.69,45a16,16,0,0,1,3.58-6.05c0,0.06,0,.11,0,0.17a0.75,0.75,0,0,0,0,.22c-0.41,2.47-.51,5.17,1.63,7.26,1.22,1.19,3.49,1.63,4.73,1.79a9,9,0,0,0,1,.06h0.25a5.87,5.87,0,0,1-.18.65A5,5,0,0,1,17,51.84a10.23,10.23,0,0,1-1.44-.65,11.39,11.39,0,0,0-4.44-1.53,2.44,2.44,0,0,0-1.16.26L9.86,50A14.06,14.06,0,0,1,10.69,45Zm81.77,20.8c-7.23,4.5-17.38,5.54-27.26,6-9,.41-16.64.59-24.19,0.54-12.53-.07-24.63-0.57-34.95-5.92a0.54,0.54,0,0,1-.27-0.33,0.52,0.52,0,0,1,.06-0.41c1.21-2,3-4.7,3.81-5.94a14.61,14.61,0,0,0,3.54,1.41c-0.61,2.3-.78,5.52.43,6.45,2.29,1.77,12.12,2.48,21.15,3H35a2.77,2.77,0,0,0,2.3-1.07,2.63,2.63,0,0,0,.36-1.44l0.1-3.73c2.71,0.4,9,.94,18.75,1.6h0.13a17.18,17.18,0,0,0-.77,3.27,1.4,1.4,0,0,0,1.63,1.61q1.29,0,2.58,0A101.67,101.67,0,0,0,75.33,69.7,1.69,1.69,0,0,0,77,67.51l-0.19-1.09c10.58,0.18,15.37-2.35,17.39-4.11A4.15,4.15,0,0,1,92.46,65.79Z"/><circle cx="46.2" cy="40.18" r="0.8"/><circle cx="52.64" cy="44.69" r="0.8"/><circle cx="58.76" cy="48.88" r="0.8"/><text x="0" y="115" fill="#000000" font-size="5px" font-weight="bold" font-family="'Helvetica Neue', Helvetica, Arial-Unicode, Arial, Sans-serif">Created by Chris Kerr</text><text x="0" y="120" fill="#000000" font-size="5px" font-weight="bold" font-family="'Helvetica Neue', Helvetica, Arial-Unicode, Arial, Sans-serif">from the Noun Project</text></svg>