<svg xmlns:x="http://ns.adobe.com/Extensibility/1.0/" xmlns:i="http://ns.adobe.com/AdobeIllustrator/10.0/" xmlns:graph="http://ns.adobe.com/Graphs/1.0/" xmlns="http://www.w3.org/2000/svg" xmlns:xlink="http://www.w3.org/1999/xlink" version="1.1" x="0px" y="0px" viewBox="0 0 100 125" enable-background="new 0 0 100 100" xml:space="preserve"><metadata><sfw xmlns="http://ns.adobe.com/SaveForWeb/1.0/"><slices/><sliceSourceBounds width="87.352" height="99.309" x="254.571" y="371.278" bottomLeftOrigin="true"/></sfw></metadata><path fill="#000000" d="M78.958,18.355c-0.316-0.169-0.607-0.466-0.955-0.578c-3.347-1.016-6.707-2.013-10.06-3.014  c-0.152-2.474-4.122-2.619-4.122-2.619s-0.211-2.022-1.095-3.655c-0.883-1.633-2.273-3.035-2.273-3.035  c0-1.244-0.3,0.29-1.468-2.949c-0.964-2.678-6.377-2.655-8.239-2.564c-1.861-0.091-7.273-0.113-8.237,2.564  c-1.17,3.239-0.959,2.002-1.47,2.949c0,0-1.39,1.401-2.271,3.035c-0.884,1.633-1.095,3.655-1.095,3.655s-3.968,0.145-4.125,2.619  c-3.351,1.001-6.706,1.999-10.054,3.014c-0.349,0.112-0.638,0.409-0.956,0.578C10.872,24.561,7.071,59.49,7.071,59.49l3.03,26.232  l1.467,8.916l1.067-0.169l0.623,3.806l9.561-1.566l-0.625-3.811l1.08-0.175L21.632,63.75c0,0,3.18-19.162,4.083-19.959l1.383,50.15  h1.136v5.281h21.994V19.648h1.035v79.573h22.004V93.94h1.129l1.383-50.15c0.903,0.797,4.083,19.959,4.083,19.959l-1.642,28.974  l1.08,0.175l-0.623,3.811l9.56,1.566l0.624-3.806l1.063,0.169l1.464-8.916l3.034-26.232C94.423,59.49,90.625,24.562,78.958,18.355z   M46.615,43.25c0,0.23-0.149,0.423-0.354,0.496v1.909h-0.355v-1.909c-0.205-0.073-0.354-0.265-0.354-0.496V22.243  c0-0.294,0.238-0.533,0.53-0.533c0.294,0,0.532,0.239,0.532,0.533V43.25z M55.94,43.25c0,0.23-0.149,0.423-0.353,0.496v1.909h-0.354  v-1.909c-0.205-0.073-0.355-0.265-0.355-0.496V22.243c0-0.294,0.238-0.533,0.532-0.533c0.292,0,0.53,0.239,0.53,0.533V43.25z"/><text x="0" y="115" fill="#000000" font-size="5px" font-weight="bold" font-family="'Helvetica Neue', Helvetica, Arial-Unicode, Arial, Sans-serif">Created by Steffen Frys</text><text x="0" y="120" fill="#000000" font-size="5px" font-weight="bold" font-family="'Helvetica Neue', Helvetica, Arial-Unicode, Arial, Sans-serif">from the Noun Project</text></svg>