<svg xmlns="http://www.w3.org/2000/svg" xmlns:xlink="http://www.w3.org/1999/xlink" version="1.1" x="0px" y="0px" viewBox="0 0 100 125" enable-background="new 0 0 100 100" xml:space="preserve"><path d="M98.676,66.246c1.245-5.321-0.038-17.901-8.905-33.207l-0.452-0.783l-0.801-0.42C84.581,29.77,64.939,19.634,57.754,19.22  c-0.279-0.055-0.62-0.1-1.005-0.1c-0.897,0-5.377,0.352-5.377,7.288v15.967c-6.789,2.811-29.789,12.161-38.793,13.604  c-7.326,1.175-10.347,4.462-11.592,7.013c-1.678,3.438-0.962,7.046,0.268,9.279c4.588,8.318,21.016,8.603,22.882,8.608h65.38  l0.067-0.003c4.635-0.202,7.795-1.772,9.394-4.665C100.96,72.623,99.612,68.382,98.676,66.246z M93.494,73.189  c-0.45,0.807-1.948,1.325-4.118,1.43H74.852v-6.327h-6.261v6.327h-5.322v-6.327h-6.261v6.327h-5.322v-6.327h-6.261v6.327H24.147  c-4.725-0.021-15.197-1.36-17.409-5.37c-0.363-0.658-0.796-2.136-0.125-3.51c0.841-1.724,3.311-2.992,6.958-3.577  c11.306-1.812,40.898-14.287,42.151-14.817l1.912-0.809V26.408c0-0.387,0.021-0.69,0.05-0.922  c4.231,0.373,17.947,6.708,27.117,11.472c8.909,15.762,8.282,26.485,7.76,28.012l-0.865,1.467l0.884,1.582  C93.346,69.392,94.167,71.984,93.494,73.189z"/><text x="0" y="115" fill="#000000" font-size="5px" font-weight="bold" font-family="'Helvetica Neue', Helvetica, Arial-Unicode, Arial, Sans-serif">Created by Erik Wagner</text><text x="0" y="120" fill="#000000" font-size="5px" font-weight="bold" font-family="'Helvetica Neue', Helvetica, Arial-Unicode, Arial, Sans-serif">from the Noun Project</text></svg>