<svg xmlns="http://www.w3.org/2000/svg" data-name="Layer 1" viewBox="0 0 100 125" x="0px" y="0px"><title>Chris_Kerr_Sneaker4</title><path d="M13.14,47.15l0.08,0.14a0.76,0.76,0,0,0,1.29-.79l-0.07-.12,0,0a0.74,0.74,0,0,0-1-.25A0.77,0.77,0,0,0,13.14,47.15Z"/><path d="M11.2,44.31l0.1,0.11a0.76,0.76,0,0,0,1.11-1l-0.09-.09,0,0a0.74,0.74,0,0,0-1.05,0A0.77,0.77,0,0,0,11.2,44.31Z"/><path d="M12.19,45.62l0.09,0.14A0.76,0.76,0,1,0,13.56,45l-0.1-.16A0.76,0.76,0,1,0,12.19,45.62Z"/><path d="M11.13,43.16a0.76,0.76,0,0,0-.23-1L10.76,42a0.76,0.76,0,0,0-.84,1.26l0.16,0.1a0.75,0.75,0,0,0,.41.12A0.76,0.76,0,0,0,11.13,43.16Z"/><path d="M9.41,41.13L9.26,41a0.76,0.76,0,0,0-.84,1.26l0.15,0.1A0.76,0.76,0,0,0,9.41,41.13Z"/><path d="M95.24,60.31a0.73,0.73,0,0,0-.1-0.09,0.71,0.71,0,0,0,0-.11C94,58.53,81.7,53.79,78.46,52.6l-0.81-.29c-2.39-.87-8.35-3-11.17-4.22a1.93,1.93,0,0,0-.13-1.83c-0.31-.45-1-0.91-2.36-0.55a1.12,1.12,0,0,0-.83,1l-0.49-.2a1.12,1.12,0,0,0,.54-1,1.77,1.77,0,0,0-.69-1.33,2.09,2.09,0,0,0-1.7-.41,3.35,3.35,0,0,0-1.73,1.11l0,0c-0.61-.23-1.21-0.47-1.75-0.74,0-.07,0-0.14,0-0.21A1.13,1.13,0,0,0,58,43.06a1.92,1.92,0,0,0-.56-1.61A1.72,1.72,0,0,0,56,41a3.74,3.74,0,0,0-1.9,1.1l-0.15.14a10.18,10.18,0,0,1-1.6-1.35,1.12,1.12,0,0,0,.33-1.06,1.14,1.14,0,0,0-.5-0.7,2.23,2.23,0,0,0-.53-2.08,2.19,2.19,0,0,0-1.94-.27,9.83,9.83,0,0,0-1.24.47c-1.12-.93-4.09-5.51-4.24-6.63a0.76,0.76,0,0,0-1.08-.58c-2.9,1.43-4.14,4-5.35,6.48-1,2.13-2.1,4.33-4.23,5.92-3.58,2.67-8.87,4.42-12.95,1.32a8.27,8.27,0,0,1-3.18-6.41,0.76,0.76,0,0,0-1.13-.66A11.2,11.2,0,0,0,13,40.14a20.74,20.74,0,0,0-4.46-2.39,0.78,0.78,0,0,0-.59.18,17.68,17.68,0,0,0-2.75,3.9l-0.37.63a1.32,1.32,0,0,0-.23.72,1.29,1.29,0,0,0,.81,1.11,19,19,0,0,1,2.69,1.65,10.57,10.57,0,0,1,1.3,1.19c-1.76,3.19-1.94,9.23-.83,11.57a7.06,7.06,0,0,0-1.62,2,7.45,7.45,0,0,0-.86,6.45A7.18,7.18,0,0,0,9.43,71.1h0a11.74,11.74,0,0,0,2.43,1.06l0.47,0.14,0.14,0h0a41,41,0,0,0,10.9,1.09c1,0,2,0,3,0,6.56,0.19,12.71.29,18.54,0.29,4.95,0,9.66-.07,14.21-0.21l3-.1h0l2.79-.12h0L68,73.2h0L70.89,73l2.91-.19h0l2.9-.22,0.22,0c0.94-.08,1.89-0.15,2.85-0.24h0c1.16-.11,2.12-0.23,3-0.36h0c1-.15,2-0.33,2.87-0.54h0a24.25,24.25,0,0,0,2.88-.86h0a18.27,18.27,0,0,0,2.72-1.26h0a15.64,15.64,0,0,0,2-1.33,7.9,7.9,0,0,0,2.62-3.3A4.41,4.41,0,0,0,95.24,60.31ZM63.67,48.54h0q-0.46.66-1,1.35a5.47,5.47,0,0,0,.09-1.67L63,48.27C63.19,48.35,63.43,48.43,63.67,48.54ZM9.08,44.74A19.77,19.77,0,0,0,6.31,43l0.25-.43a22.41,22.41,0,0,1,2.12-3.21C9.95,40,13.65,42,15,43.79c0.8,1.07,1.34,1.89.92,2.71a30.29,30.29,0,0,1-2.56,2.65l-0.48.41A12.37,12.37,0,0,0,9.08,44.74ZM10.13,58.3c-0.77-.84-1.17-6.43.37-9.87a10.73,10.73,0,0,1,1.33,2.67,0.76,0.76,0,0,0,.54.5l0.18,0a0.76,0.76,0,0,0,.53-0.22c0.35-.34.78-0.71,1.24-1.09a11.7,11.7,0,0,0,2.93-3.12c0.88-1.73-.28-3.28-1.05-4.3A10.51,10.51,0,0,0,14.28,41,12.75,12.75,0,0,1,16,38.85,9.89,9.89,0,0,0,19.69,45a9.52,9.52,0,0,0,5.88,2,15.46,15.46,0,0,0,8.89-3.27c2.43-1.81,3.58-4.18,4.69-6.47,1-2.1,2-4.1,3.91-5.36a25.84,25.84,0,0,0,4,6.15c-0.64.38-1.26,0.78-1.87,1.19s-1.12.75-1.69,1.08c-1.58.93-3.21,1.81-4.86,2.62a1.14,1.14,0,1,0,1,2c1.7-.84,3.38-1.75,5-2.7,0.6-.35,1.19-0.75,1.79-1.15a18.69,18.69,0,0,1,3.33-1.91,1.14,1.14,0,0,0,.08.53A4.71,4.71,0,0,0,48.8,40.9a10,10,0,0,0-1,2.42A1.14,1.14,0,1,0,50,44a8.17,8.17,0,0,1,.77-1.89A2.68,2.68,0,0,1,51,41.74l0.11,0.1a15,15,0,0,0,1.64,1.44,23.19,23.19,0,0,1-2.59,1.89c-0.61.38-1.24,0.72-1.86,1.06l-2.55,1.39a1.14,1.14,0,1,0,1.09,2l2.55-1.39c0.67-.36,1.33-0.73,2-1.12a27.22,27.22,0,0,0,3.69-2.8,4.89,4.89,0,0,1-.64,2.45,1.14,1.14,0,1,0,2,1.14,7.07,7.07,0,0,0,.79-2.1c0.28,0.12.55,0.25,0.84,0.36l-0.38.43a27.21,27.21,0,0,1-2.46,2.62,13,13,0,0,1-2.39,1.69,1.14,1.14,0,0,0,1.1,2,15.38,15.38,0,0,0,2.81-2,29.34,29.34,0,0,0,2.67-2.83l0.82-.93a3.47,3.47,0,0,1,.29,2.46,1.12,1.12,0,0,0,1.35,1.48,28.19,28.19,0,0,1-2.12,2.39,1.14,1.14,0,1,0,1.61,1.61,36,36,0,0,0,4.32-5.34l0.19-.3c2.81,1.19,8.69,3.33,11.34,4.29L77.94,54c7.3,2.67,15.18,6.11,15.89,6.93a0.69,0.69,0,0,0,.1.09,2.08,2.08,0,0,1-.83,1.78,6.19,6.19,0,0,1-2.4,1h0c-0.78.2-1.59,0.38-2.41,0.54h0c-0.86.16-1.75,0.29-2.65,0.39h0c-0.88.1-1.81,0.18-2.76,0.23s-2,.09-3,0.09h0q-1.54,0-3.08,0h0c-1.06,0-2.11-.08-3.17-0.13h0l-3-.17h0l-0.46,0-2.42-.14h0l-3.07-.2h0l-2.88-.2-3-.23-0.47,0-2.39-.19H55.72l-2.84-.24-2.73-.25H50.08l-3-.28-2.82-.28h0l-2.73-.29h0l-2.91-.32h0L36,61.81l-2.67-.31h0l-2.9-.36h0l-2.83-.36-2.91-.38h0L22,60l-2.69-.38h0q-3.74-.54-7.47-1.13a13.93,13.93,0,0,0-1.73-.2h0ZM56.82,72.12a18.16,18.16,0,0,1-.43-6.78l1.36,0.11a18.65,18.65,0,0,0,.45,6.64Zm-2.95.06a18.12,18.12,0,0,1-.42-7.09l1.42,0.12a19.82,19.82,0,0,0,.38,6.95Zm-2.83,0a18.13,18.13,0,0,1-.4-7.39L51.95,65a19.81,19.81,0,0,0,.37,7.25Zm-3,0a18.09,18.09,0,0,1-.36-7.69l1.47,0.14a19.77,19.77,0,0,0,.34,7.54H48Zm-2.79,0a18,18,0,0,1-.4-8l1.31,0.13a19.74,19.74,0,0,0,.3,7.84H45.25ZM59.77,72a17.09,17.09,0,0,1-.48-6.48l1.55,0.12A22,22,0,0,0,61.19,72Zm3-.11a20.33,20.33,0,0,1-.39-6.15l1.4,0.1a28.79,28.79,0,0,0,.32,6Zm2.85-.12A27.22,27.22,0,0,1,65.25,66l1.57,0.1a30.32,30.32,0,0,0,.28,5.64Zm3-.16a28.53,28.53,0,0,1-.29-5.47l1.38,0.08A30.46,30.46,0,0,0,70,71.57Zm2.88-.17a28.8,28.8,0,0,1-.27-5.13l1.52,0.08a44.09,44.09,0,0,0,.17,5Zm2.93-.2a42.54,42.54,0,0,1-.16-4.78L76,66.57c0,1.58,0,3.14-.05,4.6Zm3-4.67,1.6,0c0,1.47,0,2.92-.1,4.28L77.42,71C77.45,69.63,77.47,68.13,77.47,66.61Zm3.11,0,1.55,0c0,1.38,0,2.74-.15,4l-1.49.18C80.55,69.45,80.58,68,80.58,66.62Zm3.06-.13,1.3-.11c0,1.27,0,2.53-.15,3.73l-1.27.25C83.6,69.11,83.64,67.81,83.64,66.49Zm2.8-.29,1-.15c0,1.14,0,2.22-.09,3.36-0.34.11-.69,0.22-1,0.32C86.41,68.58,86.45,67.4,86.44,66.2Zm2.49,2.62c0.05-1,.06-2,0-3l1-.21c0,0.92,0,1.74,0,2.74C89.62,68.5,89.28,68.66,88.93,68.81ZM39.55,72.24a18.27,18.27,0,0,1-.37-8.55l1.4,0.15a20.07,20.07,0,0,0,.2,8.4H39.55Zm-2.84,0a18.31,18.31,0,0,1-.2-8.81l1.16,0.13a19.62,19.62,0,0,0,.31,8.7Zm-2.77,0a15.05,15.05,0,0,1-.15-9.08L35,63.21a20,20,0,0,0,.14,9ZM31,72.09a15,15,0,0,1-.14-9.38l1.39,0.17a16.65,16.65,0,0,0,.07,9.23ZM28,72a15,15,0,0,1,0-9.66l1.33,0.17a16.62,16.62,0,0,0,.06,9.53Zm-4.75-.09H22.09a11,11,0,0,1,.26-10.31l1.18,0.16A14.8,14.8,0,0,0,23.28,71.92Zm-12.86-2A9.52,9.52,0,0,1,11.71,60l0.94,0.14a11.81,11.81,0,0,0-1.32,10.19A9.27,9.27,0,0,1,10.43,69.91ZM13.23,71a10.16,10.16,0,0,1,1-10.54v0l0.92,0.14a10.86,10.86,0,0,0-.79,10.71C14,71.17,13.62,71.08,13.23,71Zm3,0.56a9.46,9.46,0,0,1,.58-10.73L18,61a10.83,10.83,0,0,0-.31,10.75q-0.69-.06-1.38-0.15v0Zm3,0a9.3,9.3,0,0,1,.31-10.32l1.15,0.16a12.51,12.51,0,0,0-.34,10.5l-1,0A0.74,0.74,0,0,0,19.3,71.53Zm-11-10c0.76-1.2,1-1.63,1.71-1.69a11.13,11.13,0,0,0-1.8,8.07,5.44,5.44,0,0,1-.62-1.22A6,6,0,0,1,8.3,61.54ZM24.9,71.95a13.48,13.48,0,0,1,.18-10l1.43,0.19A16.59,16.59,0,0,0,26.43,72Zm17.46,0.31A18.37,18.37,0,0,1,42.1,64l1.24,0.13a19.69,19.69,0,0,0,.34,8.13H42.35Zm49.14-4.84c0-.74,0-1.43,0-2.21,0.33-.09.65-0.2,1-0.32,0,0.6,0,1.06,0,1.84l-0.13.12C92,67,91.77,67.23,91.49,67.41Zm2.94-3.23a4.58,4.58,0,0,1-.47.88c0-.29,0-0.6,0-1L94,64a4.09,4.09,0,0,0,.58-0.57A3.43,3.43,0,0,1,94.43,64.19Z"/><text x="0" y="115" fill="#000000" font-size="5px" font-weight="bold" font-family="'Helvetica Neue', Helvetica, Arial-Unicode, Arial, Sans-serif">Created by Chris Kerr</text><text x="0" y="120" fill="#000000" font-size="5px" font-weight="bold" font-family="'Helvetica Neue', Helvetica, Arial-Unicode, Arial, Sans-serif">from the Noun Project</text></svg>