<svg xmlns="http://www.w3.org/2000/svg" xmlns:xlink="http://www.w3.org/1999/xlink" version="1.1" x="0px" y="0px" viewBox="0 0 96.826 81.145" style="enable-background:new 0 0 96.826 64.916;" xml:space="preserve"><g><g><path d="M95.441,48.408c-0.148-0.14-0.322-0.247-0.514-0.317l-22.366-8.206c-0.011-0.33-0.17-0.648-0.473-0.828l-16.211-9.633    c-0.034-0.17-0.092-0.338-0.188-0.494l-3.035-4.945l-3.771-11.231L47.933,4.61c-0.196-1.675-1.441-3.008-3.1-3.316l-6.815-1.27    c-0.118-0.021-0.239-0.026-0.355-0.023L15.072,1.23c-1.824,0.1-3.325,1.486-3.569,3.298l-0.296,2.199l-4.063,8.366    c-0.072,0.149-0.119,0.31-0.14,0.475c-0.02,0.163-1.999,16.325-4.373,21.469c-2.234,4.843-1.018,10.6-0.456,12.665    c-3.051,4.29-2.893,8.791,0.475,13.059c0.273,0.347,0.687,0.556,1.128,0.57l47.633,1.585h24.083c0.053,0,0.106-0.003,0.159-0.009    c4.666-0.497,19.965-2.582,20.906-8.506C97.47,50.66,95.788,48.736,95.441,48.408z M43.986,52.099l-12.369-2.324l1.473-1.165    c0.432-0.341,0.972-0.528,1.521-0.528h7.311c0.134,0.291,0.396,0.503,0.712,0.565L61.611,52.4c0.371,0.073,0.74,0.108,1.105,0.108    c2.044,0,3.938-1.116,4.925-2.985l0.757-1.435l18.573,0.354c0.007,0,0.014,0,0.02,0c0.042,0,0.079-0.019,0.12-0.024l4.326,1.587    C78.628,56.635,44.29,52.139,43.986,52.099z M69.244,55.98c0.159,0.421,0.898,3.907,0.344,5.936l-4.303,0v-6.284    c0.792,0.012,1.589,0.019,2.391,0.019c0.502,0,1.007-0.004,1.511-0.01C69.189,55.755,69.202,55.87,69.244,55.98z M59.184,61.916    c-0.372-2.135-0.358-4.294,0.077-6.426c0.004-0.019-0.003-0.037,0-0.057c1.304,0.064,2.649,0.118,4.023,0.156v6.327L59.184,61.916    z M53.021,61.917c-0.5-2.286-0.48-4.597,0.067-6.881c1.305,0.103,2.706,0.202,4.178,0.289c-0.42,2.188-0.445,4.399-0.103,6.591    L53.021,61.917z M46.881,61.764c-0.554-2.497-0.55-4.953,0.017-7.308c1.151,0.125,2.564,0.268,4.181,0.411    c-0.518,2.336-0.558,4.694-0.107,7.033L46.881,61.764z M40.687,61.558c-0.555-2.485-0.552-5.123,0.006-8.044l2.975,0.559    c0.138,0.018,0.568,0.075,1.233,0.155c-0.547,2.421-0.573,4.927-0.076,7.468L40.687,61.558z M34.469,61.351    c-0.509-2.798-0.504-5.822,0.012-9.004l4.249,0.798c-0.564,2.96-0.597,5.76-0.098,8.344L34.469,61.351z M28.398,61.149    c-0.746-2.923-0.757-6.186-0.041-9.952l4.158,0.781c-0.535,3.265-0.566,6.388-0.089,9.305L28.398,61.149z M21.954,60.934    c-0.684-3.415-0.572-7.073,0.323-10.879l4.113,0.773c-0.726,3.823-0.744,7.19-0.059,10.253L21.954,60.934z M9.237,60.511    c-0.758-3.335-0.448-6.715,0.939-10.057l3.92-0.403c-0.986,3.696-1.226,7.25-0.717,10.598L9.237,60.511z M16.235,49.831    l0.996-0.102c1.023-0.105,2.051-0.1,3.069,0.008c-0.892,3.87-1.022,7.608-0.387,11.13l-4.497-0.15    C14.836,57.319,15.109,53.663,16.235,49.831z M25.331,31.443l-1.035-17.58c1.844,0.567,3.155,1.358,3.798,2.356l1.152,18.777    c0.153,2.505-0.28,5.052-1.256,7.364l-2.63,6.239l-3.511-0.66c-0.481-0.091-0.966-0.153-1.453-0.202l1.616-2.709    C24.464,40.918,25.612,36.22,25.331,31.443z M46.501,43.817l14.886,6.499l-16.92-3.346L46.501,43.817z M71.29,42.604    c0.027,0.012,0.05,0.028,0.078,0.038l10.066,3.694l-11.992-0.229L71.29,42.604z M65.872,48.59    c-0.234,0.444-0.554,0.813-0.924,1.114c-0.02-0.01-0.033-0.029-0.054-0.038l-17.295-7.551l7.045-10.918    c0.071-0.011,0.142-0.032,0.212-0.054L70.25,40.29L65.872,48.59z M49.865,31.969c-0.004-0.003-0.009-0.004-0.013-0.007    c0.005-0.383,0.058-1,0.282-1.655c0.734-0.164,1.56-0.384,2.472-0.666l0.323,0.527l-1.811,2.807L49.865,31.969z M45.976,28.784    c-0.039-0.108-0.08-0.217-0.154-0.313l-1.334-1.736c-0.169-0.22-0.407-0.346-0.658-0.401c0.052-0.188,0.136-0.396,0.284-0.612    c0.214-0.313,0.625-0.73,1.398-1.126c1.204,0.169,2.626,0.281,4.288,0.319l0.062,0.186c0.036,0.107,0.084,0.211,0.144,0.308    l0.683,1.113c-0.876,0.549-1.507,1.258-1.944,2.019C47.384,28.783,46.474,28.806,45.976,28.784z M41.361,19.997l-0.288-1.132    c-0.062-0.245-0.213-0.435-0.396-0.583c0.91-0.887,2.812-2.045,6.33-1.687l1.694,5.046c-1.358,0.191-2.522,0.49-3.491,0.894    c-2.43-0.398-3.637-1.006-4.205-1.427C41.312,20.838,41.468,20.419,41.361,19.997z M44.953,4.958l0.89,7.632    c-3.698-0.961-5.594-1.972-6.549-2.71c0.277-0.271,0.42-0.667,0.318-1.069l-0.288-1.132c-0.122-0.48-0.538-0.795-1.006-0.83V3.132    l5.968,1.111C44.642,4.309,44.911,4.596,44.953,4.958z M15.235,4.226l21.082-1.147v4.203l-0.482,0.123    c-0.602,0.153-0.965,0.765-0.812,1.366l0.288,1.132c0.153,0.602,0.765,0.965,1.366,0.812l0.486-0.123    c1.026,1.162,3.282,2.659,8.213,3.944c-5.38,0.146-7.127,3.607-7.211,3.781c-0.021,0.044-0.02,0.091-0.034,0.136l-0.545,0.139    c-0.602,0.153-0.965,0.765-0.812,1.366l0.288,1.132c0.153,0.602,0.765,0.965,1.366,0.812l0.463-0.118    c0.41,0.621,1.451,1.586,4.005,2.287c-0.155,0.167-0.305,0.338-0.43,0.52c-0.832,1.214-0.737,2.36-0.646,2.841    c-0.323,0.395-0.363,0.962-0.039,1.384l1.334,1.736c0.378,0.492,1.084,0.585,1.576,0.206l0.195-0.15    c0.056,0.025,0.103,0.062,0.165,0.077c0.1,0.024,0.506,0.109,1.27,0.109c0.43,0,0.986-0.032,1.652-0.113    c-0.133,0.713-0.151,1.374-0.097,1.879c0.002,0.023,0.015,0.042,0.019,0.065l-0.331,0.412c-0.389,0.484-0.312,1.192,0.172,1.58    l1.282,1.03c0.086,0.069,0.184,0.105,0.281,0.145L42.66,46.082h-8.049c-0.998,0-1.979,0.341-2.762,0.96l-2.642,2.09    c-0.059,0.047-0.094,0.109-0.14,0.165l-1.695-0.319l2.462-5.839c1.094-2.596,1.581-5.453,1.408-8.265l-1.167-19.02    c-0.009-0.148-0.051-0.293-0.123-0.423c-1.793-3.239-6.982-4.22-11.021-4.473c-2.063-0.129-3.854-1.409-4.671-3.342l-0.112-0.266    l0.326-2.423C14.528,4.543,14.847,4.247,15.235,4.226z M5.356,38.295c2.427-5.26,4.324-19.933,4.596-22.115l3.166-6.521    c1.279,1.915,3.348,3.15,5.689,3.296c1.264,0.079,2.415,0.219,3.457,0.411l1.071,18.195c0.258,4.375-0.794,8.679-3.039,12.445    l-2.076,3.48c-0.033,0.056-0.041,0.118-0.062,0.177c-0.377,0.013-0.755,0.036-1.131,0.075L5.088,48.966    C4.64,47.32,3.52,42.271,5.356,38.295z M4.961,50.991l2.989-0.307c-1.157,3.24-1.415,6.512-0.772,9.759l-2.582-0.086    C2.344,57.18,2.469,54.187,4.961,50.991z M75.414,61.916l-3.778,0c0.413-2.23-0.104-5.145-0.424-6.311    c1.526-0.04,3.047-0.111,4.549-0.212c0.685,1.156,2.038,3.944,1.783,5.982c-0.012,0.094,0.007,0.182,0.02,0.271    C76.845,61.746,76.126,61.839,75.414,61.916z M93.596,55.93c-0.327,2.055-6.926,4.223-14.048,5.411    c0.17-2.231-0.883-4.719-1.603-6.123c6.181-0.568,11.822-1.771,15.492-4.037c0.047-0.029,0.075-0.073,0.115-0.108    C93.778,51.787,94.021,53.252,93.596,55.93z"/></g></g><text x="0" y="79.916" fill="#000000" font-size="5px" font-weight="bold" font-family="'Helvetica Neue', Helvetica, Arial-Unicode, Arial, Sans-serif">Created by Gadeno Team</text><text x="0" y="84.916" fill="#000000" font-size="5px" font-weight="bold" font-family="'Helvetica Neue', Helvetica, Arial-Unicode, Arial, Sans-serif">from the Noun Project</text></svg>