<svg xmlns="http://www.w3.org/2000/svg" xmlns:xlink="http://www.w3.org/1999/xlink" version="1.1" x="0px" y="0px" viewBox="0 0 100 125" enable-background="new 0 0 100 100" xml:space="preserve"><path d="M94.131,36.219c0.422-0.12,1.367-0.544,2.43-0.94c1.055-0.398,0.943-1.617,0.875-2.249  c-0.068-0.634-0.838-1.528-1.576-2.244c-0.744-0.716-1.781-0.649-2.723-0.627c-0.939,0.02-2.059,0.433-2.771,0.694  c-0.344,0.125-0.637,0.293-0.861,0.447l0.002-0.003l-0.461,0.088c-1.846,0.309-2.041,0.911-2.902,2.13  c-0.863,1.22-1.576,3.675-1.74,4.162c-0.162,0.488-0.406,1.204-1.105,1.789c-1.443,1.205-3.352,1.381-5.105,1.414  c-1.756,0.033-1.494-0.098-3.545-0.633c-2.049-0.537-6.146-3.397-7.021-4.13c-0.236-0.196-0.621-0.505-1.057-0.854l0,0  c0.209-1.484-0.427-3.834-0.576-4.379c-0.145-0.546-0.447-1.926-1.127-2.901s-0.68-1.562-0.68-1.562s-0.041-0.462-0.508-0.523  s-1.268,0.407-1.268,0.407l-0.196,0.001c-0.699-0.031-0.722,0.498-0.724,0.552c-0.004-0.009-0.028-0.023-0.164-0.032  c-0.187-0.013-0.752,0.232-1.193,0.638c-0.441,0.404-1.115,0.969-1.687,1.308c-0.573,0.34-0.767,0.409-1.31,0.356  c-0.545-0.053-0.981,0.208-1.758,0.63s-1.256,0.642-1.734,1.541c-0.477,0.899-0.088,1.686-0.088,1.686l0.002,0.001  c-0.581,0.523-0.719,1.227-0.748,1.443L51.1,35.312c-0.203-0.227-1.454-0.319-2.595,0.251c-1.14,0.569-1.238,1.726-1.238,1.727  l-1.879,0.969c0,0-1.483,0.053-1.936,0.236c-1.049,0.426-1.32,1.442-1.32,1.443l-1.184,0.611c-0.042-0.268-0.26-0.378-0.26-0.378  c-0.508-0.298-1.143-0.107-1.284,0.368c-0.091,0.305-0.11,0.59-0.089,0.851l-0.779,0.402l-0.439,0.194c0,0-0.138,0.496-0.139,1.222  l-0.001-0.019c0,0-2.816,0.761-3.827,1.513c-0.743,0.552-1.089,0.699-1.089,0.699s-1.298,0.579-2.585,0.958  c-0.715,0.212-1.675,0.488-1.675,0.488s-4.547,1.534-5.024,1.796c-0.477,0.259-4.249,1.451-4.726,1.775  c-0.477,0.325-1.82,0.781-1.82,0.781s-1.994,0.78-2.277,0.932c-0.282,0.152-1.647,0.456-1.647,0.456s-2.335,0.909-2.602,1.063  c-0.142,0.08-0.764,0.335-0.764,0.335s-1.056,0.466-1.382,1.355c-0.325,0.888-1.984,6.123,2.828,8.366  c4.813,2.244,9.041,2.311,9.041,2.311l0.617-0.456h0.228v0.456h5.17v-0.326h0.553v0.488h4.649c0,0,0.129-0.229,0.227-0.229  c0.098,0,0.715,0,0.715,0l0.228,0.521h5.16l0.303-0.302h0.422l0.683,0.464h4.747l0.487-0.485h0.358c0,0,0.065,0.485,0.552,0.485  c0.487,0,4.846,0,4.846,0s0.52-0.422,0.618-0.519h0.291c0,0,0.278,0.537,0.994,0.601c0.717,0.064,4.26,0.019,4.26,0.019l0.406-0.391  h0.195c0,0,0.064,0.391,0.941,0.438h2.895c0,0,0.293-0.145,0.425-0.243h0.389c0,0,0.081,0.428,0.715,0.428s2.91,0,2.91,0  s0.181-0.088,0.342-0.232h0.602c0,0,0.114,0.356,0.876,0.356c0.766,0,3.172,0,3.172,0s0.293-0.113,0.344-0.244h0.486  c0,0,0.131,0.389,0.586,0.389s3.316,0,3.316,0s0.283-0.18,0.369-0.269h0.459c0,0,0.215,0.385,0.57,0.385h3.512  c0,0,0.357-0.101,0.486-0.385h0.555c0,0,0.324,0.368,0.83,0.385c0,0,3.219-0.002,3.885-0.385l1.041-0.64c0,0,0.146,0.261,0.91,0.179  c0.764-0.08,2.943-0.016,6.73-2.602c0,0,0.797-0.26,1.203-0.78c0.406-0.52,0.861-1.021,0.861-1.577c0-0.374,0.195-0.519,0.195-0.519  s0.357-0.7,0.275-1.351c-0.08-0.651-0.162-1.383-0.568-2.439s-1.182-3.209-1.32-3.594c-0.094-0.269-0.615-0.781-0.615-0.781  c0.613-2.046-0.477-10.09-0.795-10.815c-0.102-0.227-0.066-0.31-0.25-0.339c0.031-0.339-0.189-1.096-0.275-1.682  c-0.09-0.659-0.656-1.267-0.338-2.209C93.166,36.877,93.713,36.339,94.131,36.219z M62.069,27.027  c0.017-0.056,0.019-0.13,0.019-0.13c0.184-0.021,0.328,0.087,0.699-0.109c0.713-0.378,0.804-0.295,0.804-0.295  c0.087,0.877,0.505,1.376,0.873,1.981c0.368,0.604,0.884,1.84,1.267,3.81c0.387,1.97,0.305,2.555,0.305,2.556  c-1.09-0.863-2.261-1.78-2.261-1.78s-1.857-1.436-3.569-1.564c-1.715-0.13-3.297,0.824-3.297,0.824l-0.179,0.092  c-0.072-0.062-0.21-0.111-0.387-0.143c0.267-0.712,1.032-1.566,1.326-1.88c0.817-0.104,2.409-0.506,2.594-0.707  c0.362-0.393,1.323-0.834,1.623-0.937c0.3-0.102,0.507-0.232,0.492-0.727C62.354,27.241,62.069,27.027,62.069,27.027z   M58.938,35.108l0.326,0.111c0,0,0.553,0.388,0.014,0.928c-0.521,0.52-0.911,0.475-1.057-0.094c0.385,0.12,0.787-0.101,0.777-0.563  C58.994,35.355,58.974,35.23,58.938,35.108z M58.25,35.526c-0.35-0.374-1.245-1.037-1.245-1.037s-0.504-0.493-1.165-0.656  c-1.455-0.357-1.219-0.496-1.219-0.496c0.655-0.498,0.735-0.221,1.693,0.183c0.96,0.404,1.972,1.381,1.972,1.381  C58.57,35.176,58.6,35.899,58.25,35.526z M56.125,32.72l-0.18,0.092c-0.088-0.033-0.174-0.063-0.26-0.089  C55.949,32.706,56.125,32.72,56.125,32.72z M57.762,29.703c0.49-0.107,1.487-0.591,2.287-1.363c0.795-0.772,1.261-0.896,1.261-0.896  c0.179,0.03,0.341,0,0.341,0c0.135,0.128,0.146,0.655,0.137,0.695c-0.007,0.04-0.071,0.034-0.071,0.034  c-0.272,0.139-1.14,0.493-1.485,0.767c-0.5,0.394-0.477,0.353-0.906,0.479c-0.427,0.127-1.563,0.355-1.563,0.355V29.703  L57.762,29.703z M57.305,30.411c-0.979,0.746-1.417,1.819-1.417,1.819h0.001c-0.231,0.001-0.5,0.025-0.785,0.082l0.003-0.001  c-0.017-0.508-0.163-0.915,0.273-1.16c0.437-0.244,1.843-0.752,1.843-0.752C57.242,30.405,57.271,30.409,57.305,30.411z   M54.645,30.919c0.225-0.221,0.813-0.516,1.083-0.68c0.268-0.163,0.585-0.371,0.964-0.478s0.482-0.021,0.482-0.021  c-0.223,0.201-1.006,0.405-1.902,0.798c-0.895,0.393-0.793,1.173-0.793,1.173l0.027,0.76v0.002  c-0.107,0.036-0.221,0.075-0.331,0.122c-0.04,0.017-0.078,0.036-0.114,0.054l0.006-0.006C53.887,31.755,54.419,31.139,54.645,30.919  z M54.141,33.171c-0.034,0.14-0.02,0.283,0.036,0.404c0,0,0.022,0.043,0.082,0.106l-0.866,0.447  C53.535,33.686,53.814,33.38,54.141,33.171z M48.218,36.212c0.887-0.778,2.409-0.656,2.409-0.656l-1.232,0.636  c-0.365-0.084-0.693-0.1-0.951-0.017c-0.511,0.168-0.676,0.504-0.683,0.858l-0.162,0.083C47.647,36.889,47.801,36.577,48.218,36.212  z M53.753,38.902c0.144,0.196,0.341,0.581,0.011,0.95c-0.469,0.523-0.851,0.24-0.949-0.094l-0.064-0.093  c0.477,0.104,0.791,0.015,0.932-0.13C53.822,39.391,53.84,39.151,53.753,38.902z M50.385,37.966c-1.27-0.705-1.86-0.338-1.86-0.338  c-0.367-0.746-0.18-0.986,0.115-1.038c0.1-0.001,0.204-0.002,0.311,0c0.177,0.021,0.342,0.067,0.414,0.093  c0.897,0.317,1.738,0.755,2.793,1.307c1.055,0.551,1.087,1.177,1.087,1.177C52.479,39.137,51.654,38.672,50.385,37.966z   M48.179,41.639l0.068,0.052c0,0,0.405,0.542-0.277,0.885c-0.683,0.344-0.971,0.056-0.948-0.227l-0.011-0.026  c0.066,0.036,0.138,0.074,0.224,0.117c0.475,0.237,0.836-0.261,0.836-0.261l0.071-0.1C48.144,42.079,48.214,41.878,48.179,41.639z   M47.51,42.118c-0.062,0-0.272-0.102-0.272-0.102s-0.441-0.227-0.519-0.304c-0.077-0.077-0.288-0.198-0.325-0.232  c-0.037-0.034-1.732-1.125-1.802-1.178s-0.48-0.45-0.844-0.056L43.6,40.383c0,0-0.067-0.083,0.08-0.216  c0.147-0.132,0.511-0.454,0.511-0.454l0.401-0.204l2.808,1.767c0,0,0.149,0.086,0.216,0.166c0.067,0.08,0.222,0.328,0.203,0.424  C47.8,41.958,47.571,42.118,47.51,42.118z M43.367,38.972c0.423-0.227,1.105-0.241,1.105-0.241l-1.768,0.911  C42.705,39.642,42.944,39.198,43.367,38.972z M40.133,40.618c0.147,0,0.233,0.043,0.233,0.043c0.005,0.061,0.013,0.118,0.021,0.178  c0.019,0.227,0.185,0.746,0.185,0.746c0.218,0.643,0.538,1.164,0.644,1.324c0.156,0.233,0.324,0.409,0.499,0.634  c0.176,0.225,0.024,0.507-0.073,0.535c-0.098,0.028-0.348-0.286-0.458-0.441c-0.11-0.155-0.318-0.47-0.529-0.78  c-0.211-0.311-0.21-0.237-0.43-0.61c-0.078-0.13-0.136-0.253-0.181-0.368c-0.18-0.368-0.134-0.792-0.134-0.792  S39.877,40.618,40.133,40.618z M42.071,44.478c0.183-0.175,0.265-0.335,0.297-0.48l0.002,0.002c0,0,0.274,0.618-0.467,0.801  c-0.742,0.184-0.96-0.161-0.874-0.431C41.206,44.574,41.678,44.858,42.071,44.478z M10.31,56.828c0,0,0.29-1.931,0.28-2.281  c0.857-0.389,2.141-0.954,2.654-1.093c0.802-0.217,3.013-0.953,3.534-1.191c0.52-0.239,2.472-1.063,3.013-1.281  c0.542-0.216,2.602-1.083,3.209-1.3s2.884-0.996,3.837-1.366c0.954-0.367,2.385-0.778,2.97-0.953  c0.585-0.174,3.469-1.04,4.552-1.908c1.085-0.866,3.64-1.576,3.64-1.576l-0.003-0.059c0.034,0.309,0.094,0.639,0.201,0.979  c0.471,1.495,1.494,3.105,2.486,4.163c0.956,1.017,7.694,9.93,8.197,10.594c-0.12,0.014-0.221,0.024-0.293,0.03  c-1.043,0.099-6.53,0.729-9.371,0.896c-2.931,0.171-24.748,0.932-28.33-1.201c0,0-0.628-0.21-0.645-0.786  C10.224,57.921,10.351,57.013,10.31,56.828z M94.307,53.791l1.641,4.487c0,0,0.539,1.447,0.146,2.39c0,0-0.227,0.13-0.355,0.91  c0,0-0.344,1.221-1.516,1.563c-1.168,0.344-2.406,2.293-6.811,2.634c0,0-0.375-0.568-1.041-0.065  c-0.666,0.506-0.975,0.62-0.975,0.62s-0.766,0.342-3.35,0.26c-0.52-0.017-0.488-0.341-0.488-0.341h-1.594l-0.131,0.324h-3.152  l0.064-0.357H74.99l-0.088,0.212h-3.068v-0.326h-1.658v0.181h-3.188v-0.294h-1.854v0.162h-2.602l0.277-0.374h-1.951l-0.051,0.212  h-2.942v-0.343h-1.643v0.375l-3.886-0.032c0,0-0.357-0.033-0.357-0.472v-0.145h-1.74v0.356l-0.048,0.113l-4.503-0.031v-0.425h-1.609  c0,0,0,0.521-0.277,0.456h-4.194c0,0-0.358-0.144-0.537-0.456h-1.414l-0.032,0.375h-4.341l-0.244-0.55h-1.578L31.3,65.471h-3.593  v-0.492h-2.114v0.311h-3.479v-0.408h-1.806l-0.064,0.425c0,0-4-0.425-6.894-1.594c-2.895-1.172-3.854-2.017-4.261-3.303  c-0.407-1.282-0.617-4.228,0.667-5.478l-0.221,1.753c0,0-0.038,0.134,0,0.318c0,0-0.075,0.748-0.079,1.037  c-0.003,0.291-0.058,0.859,0.217,1.25c0.274,0.393,0.789,0.777,1.794,1.104c1.006,0.328,2.359,0.563,4.55,0.76  c2.192,0.195,6.64,0.407,9.975,0.407c3.336,0,7.31,0,11.504-0.245c4.194-0.244,11.455-0.759,18.322-1.913  c6.869-1.152,8.449-1.054,9.922-1.104c1.473-0.049,2.441-0.369,3.275-0.478c0.832-0.109,4.449-0.528,5.713-0.675  c1.264-0.145,1.41-0.022,3.324-0.159c1.912-0.134,8.131-0.772,11.439-1.435C92.811,54.89,93.646,54.85,94.307,53.791z   M93.012,42.479c0.088,0.604,0.535,3.418,0.795,5.805c0.264,2.388,0.051,4.525,0.051,4.525s-0.9,1.199-1.441,1.321  c-0.541,0.124-7.148,1.276-9.652,1.618c-2.215,0.305-4.762,0.48-7.213,0.604c0.863-2.046,2.51-4.678,3.68-5.707  c1.213-1.066,5.678-3.74,6.156-3.876c0.479-0.135,3.955-1.975,4.389-2.219c0.438-0.246,1.656-0.933,2.42-1.516  C92.957,42.455,93.012,42.479,93.012,42.479z M92.842,41.599c-0.334,0.104-0.676,0.48-1.037,0.758  c-0.748,0.576-0.777,0.5-1.627,1.055c-0.852,0.556-4.447,2.354-4.447,2.354s-1.26,0.59-1.979,0.998  c-0.719,0.409-3.859,2.354-5.348,3.548c-1.486,1.194-3.795,6.087-3.795,6.087s-6.191,0.663-7.15,0.882  c-0.955,0.223-3.654,0.307-3.654,0.307s-1.949,0.146-3.176,0.295c-1.227,0.146-3.949,0.478-4.745,0.75c0,0-3.977,0.546-6.116,0.815  l-8.472-11.022c0,0-2.91-3.008-2.493-5.862l0.709-0.392c0.155,0.366,0.342,0.589,0.342,0.589c0.025,0.03,0.233,0.315,0.442,0.594  c0.121,0.162,0.287,0.406,0.44,0.624l0,0c0,0-0.411,0.824,0.246,1.149c0.657,0.324,1.841-0.01,1.828-0.835  c-0.013-0.753-0.5-0.873-0.5-0.873l-0.001,0.001c-0.063-0.175-0.173-0.274-0.397-0.547c-0.27-0.328-0.665-1.059-0.788-1.34  c-0.029-0.068-0.052-0.142-0.071-0.217l0.049-0.027l2.112-1.079c-0.026,0.115-0.024,0.231,0.026,0.34  c0.214,0.463,0.555,0.192,0.555,0.192c0.102-0.118,0.307-0.267,0.307-0.267c0.078,0.02,1.66,1.063,2.097,1.34  c0.186,0.119,0.316,0.206,0.441,0.285c-0.034,0.212-0.085,0.854,0.508,0.996c0.711,0.172,1.792-0.418,1.596-1.22  c-0.179-0.731-0.681-0.74-0.681-0.74s-0.085-0.02-0.198-0.011c-0.504-0.373-2.87-1.825-2.87-1.825l2.945-1.504  c0.117,0.275,0.25,0.473,0.25,0.473s-0.044,0.174,0.655-0.153c0.701-0.327,1.92,0.597,2.949,1.166  c0.209,0.116,0.4,0.203,0.577,0.269c0.062,0.265,0.289,1.002,0.873,1.061c0.713,0.072,1.438-0.812,0.921-1.713  c-0.469-0.822-0.925-0.74-0.925-0.74l-0.108,0.003c-0.531-0.421-1.605-1.133-2.728-1.623l4.743-2.423  c0.031,0.009,0.063,0.016,0.096,0.023c0.871,0.185,2.152,1.217,2.612,1.678c-0.009,0.192-0.003,1.162,0.804,1.085  c0.729-0.061,1.57-0.957,1.135-1.658c-0.336-0.536-0.852-0.499-1.009-0.473c-0.181-0.289-0.475-0.568-0.925-0.91  c-0.277-0.209-0.627-0.429-0.99-0.624l0.188-0.096c0,0,0.941-0.748,2.78-0.861c2.257-0.141,4.878,2.634,5.479,3.024  c0.603,0.391,3.481,2.895,5.511,3.983c2.035,1.09,4.768,2.781,8.766,2.331c3.998-0.449,4.813-2.186,5.186-2.834  c0.373-0.65,0.6-1.481,0.814-2.231c0.211-0.749,1.41-3.396,2.293-3.949c0.877-0.552,1.314-0.336,1.316-0.335  c0.059,0.144,0.119,0.332,0.141,0.513c0.016,0.128,0.094,0.168,0.184,0.184c-0.006,0.001-0.012,0.005-0.02,0.007  c0,0,2.324,1.829,2.701,5.812l0.002-0.01c0.041,0.474,0.133,0.825,0.156,0.882c0.037,0.102,0.135,0.451,0.252,1.221  C92.697,41.415,92.826,41.427,92.842,41.599z M92.623,36.524c-0.238-0.658-1.217-3.19-2.379-3.984  c0.635-0.599,1.529-1.087,1.906-1.199c0.455-0.134,1.42-0.465,1.42-0.465s0.721-0.368,1.971,0.455  c1.248,0.822,1.764,2.212,1.084,3.114c-0.686,0.902-2.537,1.091-3.096,1.271C93.188,35.829,92.869,36.104,92.623,36.524z"/><text x="0" y="115" fill="#000000" font-size="5px" font-weight="bold" font-family="'Helvetica Neue', Helvetica, Arial-Unicode, Arial, Sans-serif">Created by Alexandre Dos Santos</text><text x="0" y="120" fill="#000000" font-size="5px" font-weight="bold" font-family="'Helvetica Neue', Helvetica, Arial-Unicode, Arial, Sans-serif">from the Noun Project</text></svg>