<svg xmlns="http://www.w3.org/2000/svg" xmlns:xlink="http://www.w3.org/1999/xlink" version="1.1" x="0px" y="0px" viewBox="0 -43.7 595.3 744.125" enable-background="new 0 -43.7 595.3 595.3" xml:space="preserve"><g><path d="M529.1,264.4l-0.1-0.5c-0.4-2.3-9.9-55.9-15.7-67.5c-7.2-14.5-15.7-22.1-24.5-22.1c-10.2,0-19.8,3.5-33.5,20.3   c-3.1,3.8-5.4,7-7.4,9.6c-6.2,8.5-7.5,10.2-16.7,10.2c-0.5,0-0.9,0-1.4,0c-16.1-0.4-26.2-2.3-43-13c-3.6-2.3-6.8-4.4-9.6-6.2   c-2.5-1.6-4.7-3.1-6.7-4.4c4.1-9.8,13.8-38.4-5.3-48.4c-18-9.4-40.4-3.2-59.9,16.6c-10.9,11.1-15.7,18.2-17.6,21.3l-0.3,0.4   c-7.9,3.5-47.3,21-70.1,38.7c-20.1,15.6-26.4,24.5-28.2,28c-3.5,2.1-16.5,9.4-33,12.8c-24,5-51.4,10.1-58.7,10.4   c-1.1,0-2.1,0.1-3.1,0.1c-7.2,0.2-14.1,0.3-20.2,7.8c-0.5,0.6-5.4,6.5-7.1,13.1c-1.1,4.2-1.8,13-1.9,14c-0.1,1.5-0.7,9.1,1.4,13.6   c2.2,4.9,4.7,8.1,17.7,16.4c8.3,5.3,24.2,11.9,42.6,17.7c20.8,6.5,41.8,11.1,59.4,12.8c30.1,3,59.9,3.4,71.4,3.4c3.1,0,4.8,0,4.8,0   h224.2l0.3,0c1.3-0.1,32.4-2.5,39.4-21.8C532.9,330.1,529.3,267.1,529.1,264.4z M520.6,262.1c-2.6-1.9-5.8-3.7-9.6-5.1   c-8.4-3.1-19.7-0.2-28,1.9c-1.1,0.3-2,0.5-2.9,0.7c-2.1,0.5-8.1,1.8-16.5,3.6c-12.5,2.7-29.9,6.5-47.2,10.4   c5.9-7.2,14.7-17.4,23.5-25.2c14.8-13.3,32.8-24.9,45.7-29.5c9-3.2,20.3-3.2,25.4-3C514.6,230.4,518.5,250.6,520.6,262.1z    M372.9,202c2.8,1.8,6,3.9,9.7,6.3c18.3,11.6,29.8,13.9,47.1,14.2c0.6,0,1.1,0,1.6,0c13.2,0,16.5-4.5,23.1-13.5   c2-2.7,4.2-5.7,7.1-9.3c13-16,20.6-17.4,27.3-17.4c5.4,0,11.8,6.5,17.4,17.7c0.8,1.6,1.7,4.3,2.7,7.7c-6.4-0.1-16.9,0.3-26,3.5   c-11.5,4.1-26.6,13.2-40.2,24.2c-10-1-65.7-7.3-103.4-23.2c-0.5-5.8-0.6-12.1-0.1-13.6c1.2-3,3.7-6.9,11.3-6.9   C357.4,191.8,362.2,195,372.9,202z M311.1,164.8c6.3-6.4,28.7-26.5,50.5-15.1c12.4,6.5,5.5,28.4,2,37.3c-4.3-2.1-8.2-3.2-13-3.2   c-9.1,0-15.6,4.1-18.7,11.9c-1,2.6-1,8.1-0.8,13c-8.2-3.8-22.9-11.4-30.4-20c-1.3-1.5-2.3-2.7-3.2-3.7c-0.7-0.8-1.3-1.4-1.7-2   C297.8,179.8,302.3,173.7,311.1,164.8z M222.3,225.9c0.5-0.4,1-0.7,1.5-1.1l8.4,13.6c0.8,1.2,2.1,1.9,3.4,1.9   c0.7,0,1.4-0.2,2.1-0.6c1.9-1.2,2.5-3.6,1.3-5.5l-8.7-14c3.6-2.4,7.3-4.8,11.2-7.1l8.6,13.9c0.8,1.2,2.1,1.9,3.4,1.9   c0.7,0,1.4-0.2,2.1-0.6c1.9-1.2,2.5-3.6,1.3-5.5l-8.5-13.7c3.9-2.2,7.9-4.3,11.7-6.3l8.9,14.4c0.8,1.2,2.1,1.9,3.4,1.9   c0.7,0,1.4-0.2,2.1-0.6c1.9-1.2,2.5-3.6,1.3-5.5l-8.5-13.8c10.2-5.1,18.7-8.9,22.5-10.6c0.4,0.5,0.9,1.1,1.5,1.7   c0.9,1,1.9,2.2,3.2,3.6c11.8,13.8,38,24.3,39.4,24.9c17.9,7.8,41.7,14.4,70.9,19.5c11.9,2.1,22.4,3.5,29.4,4.3   c-13.6,12.2-26.8,29-30.4,33.8c-16.2,3.7-31.3,7.3-40.9,10.1c-23.2,6.5-45.4,4.9-52.1,4.2c-1.5-3-4.5-8.6-7.9-13   c-5.1-6.7-18.1-17.4-32.2-24c-14-6.6-23.8-4.7-32.5-2.9l-1.7,0.3c-4,0.8-8.4,2.5-13.1,4.3c-6.1,2.4-12.9,5-17.2,4.7   c-4.3-0.3-7.9-6.1-9.5-9.5C198.5,247.6,204.5,239.7,222.3,225.9z M157.8,268.2c14.8-3.1,26.9-9,32.7-12.2c0.5,1,1.2,2.1,2,3.2   c3.7,5.4,8.2,8.4,13,8.8c6.2,0.5,13.6-2.4,20.8-5.2c4.3-1.7,8.5-3.3,11.7-3.9l1.7-0.3c8.2-1.6,16-3.2,27.6,2.3   c13.6,6.4,25.5,16.7,29.3,21.7c1.6,2.1,3.1,4.5,4.4,6.8c-8.1-1.4-20.8-4-29.9-8l-2.3-1c-14.3-6.3-23.8-10.5-31.2-4.2   c-3,2.5-4.8,7.2-7,12.6c-2.3,5.8-5.4,13.7-8.8,13.5c-3.1-0.2-6-3.3-9.4-6.8c-4.7-5-10.6-11.2-20-11.8c-5.3-0.3-15.8-0.1-28,0.1   c-20.2,0.4-47.9,0.9-55.4-1.3c-4.3-1.3-7.6-2.4-10.2-3.5C111.5,277.8,153,269.2,157.8,268.2z M73.4,314.7c-0.5-2.3-0.5-6-0.3-8.3   c0.2-2.5,0.9-9.7,1.6-12.7c1.3-5,5.4-9.9,5.4-9.9l0.1-0.1c1.6-2,3.2-3.1,5-3.8c4.6,3.9,10.9,6.8,21.5,9.9   c8.7,2.6,34.8,2.1,57.8,1.7c12-0.2,22.4-0.4,27.4-0.1c6.3,0.4,10.4,4.7,14.7,9.3c4.1,4.4,8.4,8.9,14.6,9.3c0.3,0,0.5,0,0.8,0   c8.7,0,12.8-10.3,16-18.6c1.4-3.7,3.2-8.2,4.7-9.4c3.5-2.9,9.9-0.3,22.9,5.4l2.3,1c15.2,6.6,38.5,9.6,39.7,9.7   c0.9,0.1,7.6,1.1,17.7,1.1c10.6,0,24.9-1.1,39.8-5.3c21.9-6.2,72.7-17.2,100.1-23.1c8.4-1.8,14.6-3.2,16.7-3.7   c0.9-0.2,2-0.5,3.1-0.8c6.8-1.7,17.2-4.3,23.3-2.1c7,2.6,11.2,6.9,13.3,9.8c0.3,7,0.6,15.7,0.6,24.6c-14,0-61.4,0.2-88,0   c-29.6-0.2-70,3.5-108.3,9.8c-17.5,2.9-30,6-42.2,8.9c-11.8,2.9-22.9,5.5-36.9,7.6c-28.2,4.2-89.6,2.2-121.6,0   C98.1,323.3,79,316.8,73.4,314.7z M518.9,345c-5.1,14-30.4,16.4-32.4,16.6H262.4c0,0-1.7,0-4.8,0c-11.3,0-40.9-0.3-70.6-3.3   c-38.2-3.9-83.8-19.9-98.5-29.3c-1.3-0.8-2.5-1.6-3.5-2.3c9.6,2.5,23.2,5.3,39.6,6.4c19.1,1.3,46.8,2.5,72.6,2.5   c19.7,0,38.1-0.7,50.7-2.5c14.4-2.1,25.7-4.9,37.7-7.8c12-2.9,24.3-5.9,41.6-8.8c37.8-6.3,77.8-9.9,106.9-9.7   c26.6,0.2,74,0.1,88.1,0C522.2,322.9,521.4,338.4,518.9,345z"/><path d="M378.7,333.7c0,7,5.7,12.7,12.7,12.7h88.6c7,0,12.7-5.7,12.7-12.7s-5.7-12.7-12.7-12.7h-88.6   C384.4,321,378.7,326.7,378.7,333.7z M484.8,333.7c0,2.6-2.1,4.7-4.7,4.7h-88.6c-2.6,0-4.7-2.1-4.7-4.7s2.1-4.7,4.7-4.7h88.6   C482.7,329,484.8,331.1,484.8,333.7z"/></g><text x="0" y="566.5999999999999" fill="#000000" font-size="5px" font-weight="bold" font-family="'Helvetica Neue', Helvetica, Arial-Unicode, Arial, Sans-serif">Created by Artzgeo</text><text x="0" y="571.5999999999999" fill="#000000" font-size="5px" font-weight="bold" font-family="'Helvetica Neue', Helvetica, Arial-Unicode, Arial, Sans-serif">from the Noun Project</text></svg>