<svg xmlns="http://www.w3.org/2000/svg" xmlns:xlink="http://www.w3.org/1999/xlink" version="1.1" x="0px" y="0px" viewBox="0 0 90 112.5" enable-background="new 0 0 90 90" xml:space="preserve"><path d="M88.1,59.5c0-0.3-0.2-0.7-0.6-1c-0.1-0.4-0.3-0.9-0.7-1.4c-2.1-2.8-3.6-4.3-5.3-5.1c-1.6-0.9-3.4-1.1-5.8-1.4  c-2.2-0.3-8.9-1.6-8.9-1.6s-9.5-2.3-22.3-10.6c-3.9-4.3-5.5-10-6.3-12.7c-1.1-4-2.5-6.2-5-7.8C31,16.4,27,18,23,19.9  c-0.6,0.3-1,0.5-1.4,0.6c-0.5,0.2-0.9,0.6-1.1,1.2c-0.1,0.4-0.1,0.8,0,1.2C17.2,24,13,25.1,9.6,25.7c-1.9,0.3-3.3,1-4.1,2.1  c-0.8,1-0.7,2.1-0.7,2.5C3.2,43.4,2.2,53.7,2.2,57.6c0,0.3,0,0.6,0,0.8c0,0.1,0,0.2,0,0.3c-0.1,0.7-0.5,6,0,8.1c0.6,2.5,5.5,3,6.4,3  l0,0c0.1,0,13.1,0.2,23.4,0.5c1.7,0,3.5,0.1,5.3,0.2c5.2,0.2,10.6,0.4,15.5,0.4c4.8,0,8.3-0.2,10.9-0.5c1.2-0.2,2.7-0.3,4.3-0.5  c6.8-0.6,16-1.5,19.1-5.7C88.3,62.8,88.5,61.2,88.1,59.5z M85.6,58c0.1,0.1,0.1,0.1,0.1,0.2c-0.8,0.1-1.7,0.4-3,0.8  c-3.9,1.1-10.4,3-20,3c-0.9,0-1.9,0-2.9-0.1l0,0l0,0c-0.2,0-0.5,0-0.8,0c-0.6,0-1.3,0-2.1,0c0.8-1.6,1.8-3.4,2.9-4.4  c0.3-0.3,0.6-0.6,0.9-0.9c2.5,0.1,4.8,0.2,6.9,0.2c8.3,0,13.2-0.8,14.5-2.5C83.2,55.1,84.3,56.2,85.6,58z M3.8,57.6  c0-2,0.3-5.8,0.7-10.8c1.9,1.1,6,3.2,9.8,4.1c4.5,1,5.4,5,5.5,5.2l1.3,3.8c-2.8-0.2-5.1-0.5-6.7-0.7c-3.4-0.4-6-0.9-7.8-1.3  C5.3,57.8,4.4,57.6,3.8,57.6C3.8,57.6,3.8,57.6,3.8,57.6z M22.8,60l-1.5-4.3c-0.1-0.5-1.4-5.2-6.6-6.3c-4.1-0.9-8.7-3.5-10-4.3  c0.1-0.6,0.1-1.2,0.2-1.9c1,0.4,2.7,1,4.8,1.5c2.8,0.8,5.3,1.1,7.5,1.1c1.2,0,2.2-0.1,3.1-0.3c2.6-0.6,6.2-2.4,9.6-4.3  c0.4,1,1.3,2.1,3,2.2c1.3,0.1,5.2,0.2,5.9,0.8c0.1,0.1,0.4,0.4,0.6,0.7c1.5,1.7,4.9,5.5,8.9,6.7c0,0.9,0,1.9-0.1,2.8  c-0.2,2.2-2,5.9-2.6,7.1C38,61.1,29.4,60.6,22.8,60z M5.7,35.6c1.5-0.3,5.9-1.2,10.9-2.8c7.7-2.4,13.2-5.2,16.6-8.2  c0.3,0.8,0.7,2,1,3.2c0.7,2.6,1.5,5.4,2.9,7.1c-2.7,1.8-12.1,8-17.2,9.2C14.8,45.2,7.1,42.4,5,41.6C5.2,39.7,5.5,37.7,5.7,35.6z   M49.6,43.4c-1.1,0.5-1.8,1.5-1.8,2.7c0,0.9,0.1,2,0.2,3c0,0.3,0,0.6,0.1,0.9c-3.3-1.2-6.3-4.5-7.7-6c-0.4-0.4-0.6-0.7-0.8-0.8  c-0.9-0.8-3.2-1-6.9-1.2c-1.1,0-1.5-0.9-1.7-1.5c3.2-1.9,6-3.8,7.1-4.5C42.4,39,46.2,41.4,49.6,43.4z M49.7,54.6  c0.2-1.9,0-3.9-0.1-5.6c-0.1-1.1-0.2-2-0.2-2.9c0-1.3,1.6-1.6,2.1-1.6c3.7,2,6.9,3.4,9.6,4.4l0,0c0.8,0.3,1.2,0.8,1.4,1.3  c0.3,1.3-1.2,3.7-3.7,6.2c-1.4,1.3-2.6,3.6-3.5,5.5c-2.3-0.1-5.1-0.2-8-0.3C48,59.9,49.5,56.7,49.7,54.6z M75.6,52.1  c2.4,0.3,3.9,0.5,5.4,1.3c-0.3,0.3-1.2,0.8-3.8,1.2c-3.4,0.5-8.4,0.7-15.1,0.4c1.3-1.6,2.3-3.5,2-5.2c0,0,0-0.1,0-0.1  c0.9,0.3,1.8,0.5,2.5,0.7C70.6,51.5,73.5,51.8,75.6,52.1z M22,22.1c0-0.1,0.1-0.1,0.2-0.2c0.4-0.1,0.9-0.4,1.4-0.6  c2.3-1,7.1-3.2,8.7-2.1c2.2,1.5,3.4,3.3,4.4,7c0.6,2.1,1.7,6,4,9.7c-0.6-0.4-1.2-0.9-1.9-1.3l-0.2-0.1c-1.5-1.1-2.4-4.4-3.1-7  c-0.6-2-1-3.7-1.7-4.5C32.8,21.4,30.1,21,28,21c-1.7,0-3.4,0.3-4.7,0.9c-0.4,0.2-0.8,0.3-1.3,0.5C22,22.2,22,22.1,22,22.1z   M6.3,30.1c0-0.2-0.2-2.3,3.5-2.9c4.6-0.7,10.8-2.6,14.1-4c1.1-0.5,2.6-0.7,4.1-0.7c1.7,0,3.3,0.3,4.2,0.9C25.5,29.7,10,33.2,5.9,34  c0.1-1.2,0.3-2.4,0.4-3.7l0-0.1L6.3,30.1z M86,63.3c-2.6,3.7-11.8,4.5-18,5.1c-1.6,0.2-3.2,0.3-4.4,0.5c-2.5,0.4-6,0.5-10.7,0.5  c-4.9,0-10.3-0.2-15.5-0.4c-1.9-0.1-3.6-0.1-5.3-0.2c-10.2-0.3-22.8-0.5-23.4-0.5c-1.9-0.2-4.8-0.9-5-1.9c-0.2-0.8-0.2-2.3-0.2-3.8  c0-1.3,0.1-2.7,0.2-3.5c0,0,0.1,0,0.1,0c0.5,0.1,1.4,0.2,2.4,0.4c1.9,0.4,4.4,0.8,7.9,1.3c7.8,1,35,2.7,44.8,2.7c0.3,0,0.5,0,0.8,0  c1,0,2,0.1,2.9,0.1c9.9,0,16.5-1.9,20.4-3c1.1-0.3,2-0.6,2.6-0.7c0.2,0,0.5-0.1,0.6-0.1c0.1,0,0.1,0,0.1,0l0,0.1  c0.1,0.5,0.1,0.9,0.1,1.3C86.7,61.9,86.5,62.6,86,63.3z"/><text x="0" y="105" fill="#000000" font-size="5px" font-weight="bold" font-family="'Helvetica Neue', Helvetica, Arial-Unicode, Arial, Sans-serif">Created by Pat Doran</text><text x="0" y="110" fill="#000000" font-size="5px" font-weight="bold" font-family="'Helvetica Neue', Helvetica, Arial-Unicode, Arial, Sans-serif">from the Noun Project</text></svg>