<svg xmlns="http://www.w3.org/2000/svg" xmlns:xlink="http://www.w3.org/1999/xlink" version="1.1" x="0px" y="0px" viewBox="0 0 100 125" enable-background="new 0 0 100 100" xml:space="preserve"><path d="M31.326,56.619c0.266-0.004,0.53-0.014,0.791-0.037c0.482-0.045,0.97-0.092,1.465-0.139  c0.323-0.031,0.647-0.062,0.973-0.093l12.244-17.092c-0.862-0.923-1.67-1.897-2.43-2.904L25.932,51.561  C27.635,53.862,29.441,55.557,31.326,56.619z"/><path d="M48.612,56.256l5.319-11.532c-0.412-0.23-0.822-0.463-1.233-0.699c-1.154-0.662-2.234-1.422-3.248-2.26l-9.397,14.149  C43.122,55.746,46.099,55.764,48.612,56.256z"/><path d="M20.751,32.515c-0.072,0.305-0.133,0.613-0.185,0.918c-0.128,0.771-0.198,1.581-0.207,2.413l20.144-4.948  c-0.497-0.859-1.003-1.773-1.544-2.784L20.751,32.515z"/><path d="M48.863,41.596c-0.611-0.528-1.216-1.098-1.803-1.701L35.517,56.01c1.228-0.112,2.61-0.23,3.982-0.314L48.863,41.596z"/><path d="M25.784,50.926l18.043-14.882c-0.609-0.83-1.217-1.721-1.814-2.655L23.908,47.953l0.001,0.003  C24.508,49.016,25.138,50.014,25.784,50.926z"/><path d="M23.423,47.594l18.473-14.859c-0.285-0.457-0.563-0.915-0.834-1.374l-20.948,5.146  C20.192,39.374,20.983,43.116,23.423,47.594z"/><path d="M96.594,59.292c-0.01-0.025-0.664-1.778-1.713-1.972c-0.178-0.032-0.337-0.159-0.427-0.267  c-1.356-1.634-3.3-2.073-5.171-2.385c-1.124-0.187-2.27-0.361-3.377-0.53c-1.637-0.25-3.327-0.508-4.984-0.809  c-0.614-0.113-1.21-0.275-1.896-0.485c-1.035,3.356-9.631,7.16-14.801,9.449l-0.027,0.012c-1.145,0.507-2.183,0.753-3.172,0.753  c-2.289,0.001-3.988-1.332-5.956-2.875c-0.838-0.658-1.698-1.332-2.694-1.99c-1.912-1.264-4.888-1.877-9.098-1.877  c-3.105,0-6.432,0.318-9.647,0.625c-0.495,0.047-0.984,0.094-1.466,0.139c-0.317,0.029-0.646,0.044-0.977,0.044  c-6.175,0-13.352-5.157-17.208-7.928c-0.597-0.43-1.111-0.798-1.542-1.094c-0.725-0.495-1.486-0.746-2.262-0.746  c-2.095,0-3.661,1.805-3.727,1.881L6.23,49.479c-0.303,1.026-0.523,2.195-0.673,3.575c-0.06,0.55-0.063,1.122-0.067,1.675  c-0.003,0.51-0.007,1.037-0.054,1.551c0.095,1.049,0.261,1.756,0.263,1.764c0.828,2.407,5.195,3.04,6.839,3.279l0.277,0.041  c0.623,0.094,2.406,0.529,4.664,1.08c3.236,0.792,7.264,1.775,10.544,2.422c2.116,0.418,4.005,0.629,5.616,0.629  c1.556,0,2.273-0.205,2.28-0.207l0.02-0.005c0.044-0.007,4.515-0.753,9.308-0.808c4.459-0.053,7.516,0.822,8.964,1.236  c0.134,0.037,0.255,0.072,0.364,0.104c1.135,0.313,3.797,1.938,5.076,2.719c0.214,0.13,0.385,0.234,0.494,0.299  c0.094,0.055,0.193,0.117,0.299,0.183c0.766,0.474,1.814,1.122,3.233,1.156c1.628,0.04,2.132-0.554,2.831-1.384  c0.248-0.293,0.528-0.625,0.886-0.961c1.394-1.309,2.539-1.324,2.587-1.324c0.018,0.001,1.186,0.037,2.967,0.037  c2.625,0,6.531-0.078,10.246-0.453c6.225-0.628,12.152-4.301,12.211-4.338l0.249-0.156l0.006,0.294  c0.044,2.281-0.32,4.775-3.358,5.978c-0.598,0.236-1.157,0.465-1.691,0.682c-3.303,1.34-5.689,2.309-9.287,2.309  c-1.536,0-3.283-0.176-5.342-0.537c-0.832-0.146-1.627-0.22-2.362-0.22c-4.638,0-5.733,2.935-5.745,2.964l-0.014,0.029  c-1.004,1.682-1.643,2.289-3.236,2.338c-1.377,0.042-2.02-0.488-2.93-1.235c-1.142-0.937-2.705-2.22-6.686-3.436  c-1.9-0.58-3.775-0.874-5.572-0.874c-3.488,0-6.086,1.082-7.983,1.871c-0.338,0.141-0.658,0.273-0.955,0.389  c-1.363,0.527-6.735,1.094-12.561,1.094c-5.456,0-15.283-0.512-19.826-3.942c-0.294-0.156-4.909-2.688-4.69-7.764  c0-0.007,0.052-0.513,0.123-1.18c-0.145,0.232-0.276,0.458-0.35,0.698c-0.72,2.365-0.807,4.961-0.261,7.718  c0.523,2.644,2.678,3.925,4.393,4.534c1.545,0.549,3.201,0.888,4.802,1.217c0.492,0.1,0.984,0.201,1.473,0.309  c2.855,0.622,5.762,0.701,7.975,0.701c1.079,0,2.177-0.02,3.239-0.041l0.831-0.016c1.408-0.025,2.841-0.238,4.226-0.443  c0.263-0.039,0.526-0.078,0.789-0.115c2.145-0.309,4.077-0.564,6.002-0.564c2.078,0,3.907,0.307,5.595,0.936  c1.316,0.49,2.791,0.866,4.641,1.181c1.366,0.232,2.78,0.344,4.148,0.451c0.346,0.027,0.692,0.054,1.038,0.083  c0.758,0.064,1.533,0.098,2.283,0.129c0.344,0.015,0.687,0.029,1.03,0.047l1.48-0.001c0.116-0.017,0.233-0.034,0.35-0.052  c0.259-0.041,0.526-0.081,0.794-0.106c0.988-0.093,1.977-0.18,2.966-0.267c1.95-0.172,3.968-0.35,5.944-0.567  c2.631-0.289,5.508-0.656,8.797-1.122c3.041-0.432,6.604-1.037,9.973-2.26c0.766-0.278,1.549-0.544,2.307-0.801  c1.094-0.371,2.227-0.754,3.318-1.18c1.365-0.533,2.493-1.082,3.449-1.682c1.434-0.899,2.273-2.227,2.5-3.944  c0.002-0.013,0.174-1.36,0.132-2.521C97.32,61.482,97.246,60.838,96.594,59.292z"/><path d="M8.923,41.077l-0.132,0.106c-0.649,2.06-1.404,4.471-2.158,6.962C7.377,47.53,8.665,46.7,10.204,46.7  c0.903,0,1.781,0.287,2.608,0.852c0.433,0.296,0.946,0.665,1.541,1.092c3.533,2.538,9.979,7.171,15.675,7.749  c-2.421-1.684-4.697-4.394-6.772-8.068c-2.094-3.708-4.389-9.327-3.425-15.039c0.582-3.448,2.062-5.271,2.125-5.347  c0.003-0.004,0.091-0.102,0.26-0.265c-0.129,0.032-0.23,0.056-0.284,0.068c-2.84,0.629-6.728,1.491-7.61,4.626  c-1.132,4.024-5.327,8.634-5.369,8.68L8.923,41.077z"/><path d="M10.426,36.535c-0.146,0.339-0.297,0.69-0.408,1.04c-0.177,0.56-0.354,1.119-0.531,1.679  c1.293-1.612,3.382-4.494,4.112-7.088c0.732-2.605,3.139-3.797,5.562-4.512c-0.187-0.004-0.371-0.014-0.551-0.026  c-0.758-0.056-1.591-0.083-2.547-0.083c-0.846,0-1.708,0.021-2.542,0.041l-0.296,0.007c-0.61,0.014-1.2,0.151-1.659,0.386  c-0.655,0.334-0.482,1.16-0.413,1.406c0.584,2.088,0.213,4.103-0.226,5.799C10.806,35.652,10.613,36.101,10.426,36.535z"/><path d="M68.77,49.264c-1.037-0.412-1.947-0.772-2.482-0.983c-1.678-0.661-9.73-4.393-15.151-8.209  c-5.232-3.683-10.192-12.699-11.823-15.662c-0.205-0.372-0.365-0.665-0.47-0.842c-0.044-0.076-0.453-0.74-1.182-0.74  c-0.25,0-0.517,0.078-0.792,0.232c-0.586,0.339-1.158,0.637-1.732,0.904c1.389,0.335,3.141,1.284,4.466,3.764  c3.128,5.856,7.161,12.321,13.344,15.864c5.364,3.076,14.927,7.922,18.929,9.023c0.405,0.111,0.799,0.168,1.167,0.168  c1.104,0,1.838-0.495,2.325-0.948c-0.165-0.048-0.31-0.096-0.446-0.147C74.133,51.392,71.158,50.211,68.77,49.264z"/><path d="M72.336,53.477c-0.219-0.032-0.438-0.078-0.66-0.139c-0.418-0.116-0.94-0.288-1.554-0.514l-1.392,6.59  c1.025-0.49,1.943-0.952,2.793-1.402L72.336,53.477z"/><path d="M78.586,52.548l0.004-0.013c-0.455-0.141-0.91-0.285-1.369-0.412c-0.383-0.106-0.773-0.188-1.16-0.279  c-0.521,0.564-1.469,1.438-3.023,1.438c-0.023,0-0.049-0.002-0.072-0.002l-0.841,4.694C75.385,56.205,78.191,54.258,78.586,52.548z"/><path d="M29.892,25.348c-1.536,0.211-3.028,0.736-4.546,1.091c-0.378,0.088-0.754,0.179-1.131,0.267  c-1.222,0.833-1.866,1.543-1.878,1.556c-0.009,0.011-1.042,1.288-1.698,3.679l18.275-4.417C37.4,25,35.449,24.348,33.988,24.276  C32.679,24.792,31.336,25.149,29.892,25.348z"/><path d="M63.957,50.179c-0.684-0.322-1.387-0.66-2.098-1.008l-4.013,12.116c0.896,0.557,1.675,0.863,2.478,0.977L63.957,50.179z"/><path d="M64.021,61.836c1.148-0.508,2.531-1.119,3.982-1.8l1.618-7.668c-1.372-0.528-3.103-1.273-5.057-2.182L60.844,62.56  c0.924,0.03,1.949-0.179,3.152-0.712L64.021,61.836z"/><path d="M55.379,59.789c0.658,0.518,1.273,0.999,1.881,1.412l4.15-12.53c-1.305-0.646-2.666-1.343-4.055-2.079l-4.794,11.128  c0.029,0.02,0.06,0.035,0.089,0.055C53.666,58.446,54.537,59.129,55.379,59.789z"/><path d="M56.74,46.547c-0.812-0.434-1.618-0.873-2.403-1.31l-5.032,10.911c1.086,0.258,2.042,0.607,2.849,1.042L56.74,46.547z"/><text x="0" y="115" fill="#000000" font-size="5px" font-weight="bold" font-family="'Helvetica Neue', Helvetica, Arial-Unicode, Arial, Sans-serif">Created by AJ Minnis</text><text x="0" y="120" fill="#000000" font-size="5px" font-weight="bold" font-family="'Helvetica Neue', Helvetica, Arial-Unicode, Arial, Sans-serif">from the Noun Project</text></svg>