<svg xmlns="http://www.w3.org/2000/svg" xmlns:xlink="http://www.w3.org/1999/xlink" version="1.1" x="0px" y="0px" viewBox="0 0 100 125" enable-background="new 0 0 100 100" xml:space="preserve"><g><g><g><path fill="#000000" d="M15.948,49.345c0-2.031,0.817-3.854,2.146-5.183c1.329-1.329,3.157-2.151,5.183-2.151     c2.031,0,3.854,0.822,5.183,2.151c1.329,1.329,2.151,3.152,2.151,5.183c0,2.026-0.822,3.849-2.151,5.183     c-1.329,1.329-3.152,2.146-5.183,2.146c-2.026,0-3.854-0.817-5.183-2.146C16.765,53.194,15.948,51.371,15.948,49.345z      M27.625,48.897c0.245-0.24,0.332-0.6,0.226-0.928c-0.102-0.323-0.388-0.563-0.729-0.614l-2.091-0.305l-0.937-1.897     c-0.152-0.309-0.471-0.503-0.812-0.503c-0.346,0-0.66,0.194-0.812,0.503l-0.937,1.897l-2.091,0.305     c-0.342,0.051-0.628,0.291-0.734,0.614c-0.102,0.328-0.014,0.688,0.231,0.928l1.514,1.477l-0.355,2.086     c-0.06,0.337,0.078,0.688,0.36,0.886c0.277,0.203,0.646,0.231,0.951,0.069l1.874-0.988l1.869,0.988     c0.305,0.162,0.678,0.134,0.955-0.069c0.277-0.198,0.42-0.549,0.36-0.886l-0.36-2.086L27.625,48.897z"/><path fill="#000000" d="M94.968,68.078C94.986,68.189,95,68.305,95,68.415c0,0.402-0.138,0.785-0.374,1.094     c-0.235,0.309-0.568,0.54-0.974,0.646l-20.215,5.322c-4.006,1.052-8.128,1.583-12.268,1.583c-0.475,0-0.955-0.005-1.431-0.018     L7.068,75.477c-0.928-0.028-1.685-0.762-1.745-1.689L5,68.812v-0.037c0-0.143,0.055-0.263,0.148-0.36     c0.097-0.097,0.217-0.152,0.36-0.152h0.005h0.014H5.54l53.04,2.538c0.628,0.028,1.255,0.042,1.883,0.042     c2.862,0,5.714-0.309,8.511-0.928l24.688-5.465l0.074-0.014l0.115-0.014c0.115,0,0.231,0.042,0.323,0.12     c0.092,0.074,0.157,0.171,0.18,0.3L94.968,68.078z"/><path fill="#000000" d="M91.146,62.646l-14.908,3.3c-0.028-0.286-0.037-0.577-0.037-0.863c0-1.108,0.166-2.215,0.489-3.286     l0.291-0.955c0.923,0.106,1.86,0.157,2.797,0.157h4.583c1.662,0,3.355,0.203,4.8,0.692c0.725,0.24,1.385,0.549,1.952,0.932     C91.123,62.632,91.137,62.637,91.146,62.646z"/><path fill="#000000" d="M74.678,60.477l-0.198,0.651c-0.388,1.288-0.586,2.622-0.586,3.955c0,0.457,0.023,0.914,0.069,1.366     l-5.488,1.214c-2.631,0.582-5.322,0.872-8.012,0.872c-0.591,0-1.182-0.014-1.772-0.042L5.992,65.978v-0.863     c0-3.286,0.775-6.522,2.257-9.452c1.652-3.263,2.506-6.858,2.506-10.495c0-0.637-0.028-1.269-0.078-1.906l-0.66-7.994     c-0.005-0.055-0.005-0.106-0.005-0.157c0-0.517,0.208-0.974,0.549-1.315c0.342-0.342,0.803-0.545,1.306-0.545     c0.102,0,0.203,0.009,0.309,0.028l6.383,1.052c0.725,0.12,1.449,0.175,2.178,0.175c1.126,0,2.252-0.138,3.346-0.425l5.954-1.542     c0.545-0.143,1.094-0.208,1.638-0.208c2.192,0,4.288,1.108,5.506,3.018l4.352,6.835c1.38,2.165,3.12,4.057,5.137,5.598     l-0.905,1.145c-0.12-0.023-0.24-0.032-0.365-0.032c-0.646,0-1.242,0.268-1.662,0.692c-0.425,0.42-0.692,1.015-0.692,1.662     c0,0.646,0.268,1.242,0.692,1.666c0.42,0.425,1.015,0.688,1.662,0.688c0.646,0,1.242-0.263,1.666-0.688     c0.425-0.425,0.688-1.02,0.688-1.666c0-0.318-0.065-0.618-0.175-0.895l0.997-1.265c0.738,0.457,1.514,0.868,2.308,1.232     l3.06,1.398l-1.02,1.708c-0.023-0.005-0.042-0.005-0.065-0.005c-0.646,0-1.242,0.268-1.662,0.692     c-0.425,0.42-0.692,1.015-0.692,1.662s0.268,1.242,0.692,1.666c0.42,0.425,1.015,0.688,1.662,0.688s1.242-0.263,1.666-0.688     c0.425-0.425,0.688-1.02,0.688-1.666c0-0.425-0.111-0.826-0.309-1.168l1.149-1.925l5.465,2.492l-0.84,1.726     c-0.595,0.028-1.135,0.282-1.528,0.678c-0.425,0.425-0.692,1.02-0.692,1.666c0,0.646,0.268,1.242,0.692,1.662     c0.42,0.425,1.015,0.692,1.662,0.692s1.242-0.268,1.666-0.692c0.425-0.42,0.688-1.015,0.688-1.662     c0-0.494-0.152-0.955-0.415-1.334l0.868-1.777l5.608,2.562c0.028,0.014,0.055,0.023,0.083,0.037l-0.614,1.509     c-0.526,0.065-1.006,0.309-1.362,0.665c-0.425,0.425-0.692,1.02-0.688,1.666c-0.005,0.646,0.263,1.242,0.688,1.666     c0.42,0.42,1.015,0.688,1.666,0.688c0.646,0,1.242-0.268,1.662-0.688c0.425-0.425,0.692-1.02,0.688-1.666     c0.005-0.554-0.189-1.066-0.512-1.468l0.618-1.518C72.509,59.96,73.585,60.255,74.678,60.477z M43.857,63.537v-0.014v-0.042     c0-0.637-0.254-1.223-0.669-1.643c-0.388-0.402-0.928-0.665-1.523-0.702c-0.046-0.009-0.083-0.009-0.106-0.009     c-0.009,0-0.014,0-0.018,0h-0.032h-0.005c-0.632,0-1.223,0.254-1.643,0.669c-0.425,0.411-0.692,0.992-0.711,1.629h0.005     c-0.005,0.032-0.005,0.046-0.005,0.055c0,0.637,0.258,1.223,0.669,1.643c0.411,0.425,0.992,0.697,1.629,0.711h0.028h0.028     c0.637,0,1.223-0.258,1.643-0.669C43.571,64.755,43.843,64.174,43.857,63.537z M40.991,45.288c0-0.646-0.268-1.242-0.688-1.666     c-0.425-0.425-1.02-0.688-1.666-0.688c-0.646,0-1.242,0.263-1.666,0.688c-0.425,0.425-0.688,1.02-0.688,1.666     c0,0.646,0.268,1.242,0.688,1.662c0.425,0.425,1.02,0.692,1.666,0.688c0.646,0.005,1.242-0.263,1.666-0.688     C40.723,46.529,40.991,45.934,40.991,45.288z M35.932,37.88c0-0.646-0.268-1.242-0.692-1.666     c-0.42-0.425-1.015-0.688-1.662-0.688c-0.646,0-1.242,0.263-1.666,0.688c-0.425,0.425-0.688,1.02-0.688,1.666     c0,0.646,0.263,1.242,0.688,1.662c0.425,0.425,1.02,0.692,1.666,0.692c0.646,0,1.242-0.268,1.662-0.692     C35.665,39.122,35.932,38.526,35.932,37.88z M35.023,62.955v-0.005V62.9c0-0.632-0.258-1.218-0.669-1.643     c-0.388-0.397-0.928-0.66-1.523-0.697v-0.005c-0.055-0.005-0.102-0.009-0.129-0.009h-0.028h-0.005     c-0.637,0-1.223,0.258-1.643,0.669c-0.415,0.402-0.688,0.974-0.706,1.597c-0.005,0.014-0.005,0.023-0.005,0.037     c0,0.028,0,0.046,0,0.051c0,0.637,0.254,1.223,0.669,1.643c0.411,0.425,0.992,0.697,1.629,0.711h0.032h0.023     c0.632,0,1.223-0.254,1.643-0.669C34.737,64.174,35.005,63.592,35.023,62.955z M32.918,49.345     c-0.005-5.326-4.315-9.642-9.642-9.642c-5.322,0-9.637,4.315-9.637,9.642c0,5.322,4.315,9.637,9.637,9.637     C28.603,58.982,32.914,54.666,32.918,49.345z"/><path fill="#000000" d="M37.492,23.803l7.966,19.735c-0.729-0.803-1.389-1.671-1.975-2.594l-4.352-6.831     c-1.5-2.349-3.969-3.803-6.632-4.048l-0.005-1.302v-0.009v-0.023c0-2.225,1.098-4.302,2.94-5.552     c0.245-0.166,0.503-0.24,0.771-0.24s0.54,0.078,0.766,0.226C37.197,23.318,37.377,23.526,37.492,23.803z"/></g></g></g><text x="0" y="115" fill="#000000" font-size="5px" font-weight="bold" font-family="'Helvetica Neue', Helvetica, Arial-Unicode, Arial, Sans-serif">Created by Viktor Ostrovsky</text><text x="0" y="120" fill="#000000" font-size="5px" font-weight="bold" font-family="'Helvetica Neue', Helvetica, Arial-Unicode, Arial, Sans-serif">from the Noun Project</text></svg>